<?xml version="1.0" encoding="utf-8"?>
<!-- Generator: Adobe Illustrator 23.0.6, SVG Export Plug-In . SVG Version: 6.00 Build 0)  -->
<svg version="1.1" id="Ebene_2" xmlns="http://www.w3.org/2000/svg" xmlns:xlink="http://www.w3.org/1999/xlink" x="0px" y="0px"
	 viewBox="0 0 236.7 54.8" style="enable-background:new 0 0 236.7 54.8;" xml:space="preserve">
<g>
	<path d="M5.3,5h-4v4H0.6V0.5h5.3v0.6H1.3v3.3h4V5z"/>
	<path d="M11,9c-0.1-0.2-0.1-0.5-0.1-0.9c-0.2,0.3-0.6,0.6-0.9,0.7S9.1,9.1,8.7,9.1c-0.6,0-1.1-0.2-1.5-0.5S6.6,7.8,6.6,7.3
		c0-0.6,0.3-1.1,0.8-1.5s1.2-0.5,2.1-0.5h1.3V4.6c0-0.5-0.1-0.8-0.4-1.1S9.7,3.1,9.2,3.1C8.7,3.1,8.3,3.3,8,3.5S7.5,4.1,7.5,4.4
		l-0.7,0c0-0.5,0.2-0.9,0.7-1.3s1-0.6,1.7-0.6c0.7,0,1.3,0.2,1.7,0.5s0.6,0.8,0.6,1.5v3c0,0.6,0.1,1.1,0.2,1.4V9H11z M8.7,8.5
		c0.5,0,0.9-0.1,1.3-0.3s0.6-0.5,0.8-0.9V5.9H9.6C8.9,5.9,8.3,6,7.9,6.2s-0.6,0.6-0.6,1c0,0.4,0.1,0.7,0.4,0.9S8.3,8.5,8.7,8.5z"/>
	<path d="M15.7,8.5c0.5,0,0.9-0.1,1.2-0.4s0.5-0.6,0.5-1.1h0.7c0,0.4-0.1,0.7-0.4,1.1s-0.5,0.6-0.9,0.7s-0.8,0.3-1.2,0.3
		c-0.8,0-1.5-0.3-2-0.9S13,6.9,13,5.9V5.7c0-0.6,0.1-1.2,0.3-1.7s0.5-0.9,0.9-1.1s0.9-0.4,1.4-0.4c0.7,0,1.3,0.2,1.7,0.6
		s0.7,1,0.7,1.6h-0.7c0-0.5-0.2-0.9-0.5-1.2s-0.7-0.5-1.2-0.5c-0.6,0-1.1,0.2-1.5,0.7s-0.5,1.1-0.5,1.9V6c0,0.8,0.2,1.4,0.5,1.9
		S15.1,8.5,15.7,8.5z"/>
	<path d="M20.3,3.7c0.2-0.4,0.5-0.7,0.9-0.9s0.8-0.3,1.2-0.3c0.7,0,1.2,0.2,1.5,0.6s0.5,1,0.5,1.7V9h-0.7V4.8c0-0.6-0.1-1-0.4-1.3
		s-0.6-0.4-1.1-0.4c-0.4,0-0.8,0.1-1.2,0.4s-0.6,0.6-0.7,1.1V9h-0.7V0h0.7V3.7z"/>
	<path d="M26.8,3.7c0.2-0.4,0.5-0.7,0.9-0.9s0.8-0.3,1.2-0.3c0.7,0,1.2,0.2,1.5,0.6s0.5,1,0.5,1.7V9h-0.7V4.8c0-0.6-0.1-1-0.4-1.3
		s-0.6-0.4-1.1-0.4c-0.4,0-0.8,0.1-1.2,0.4S27,4.2,26.8,4.7V9h-0.7V0h0.7V3.7z"/>
	<path d="M32.3,5.7c0-0.6,0.1-1.2,0.4-1.6s0.6-0.9,1-1.1s0.9-0.4,1.5-0.4c0.8,0,1.5,0.3,2.1,0.9S38,4.8,38,5.8v0.1
		c0,0.6-0.1,1.2-0.4,1.7s-0.6,0.9-1,1.1s-0.9,0.4-1.5,0.4c-0.8,0-1.5-0.3-2-0.9s-0.8-1.4-0.8-2.4V5.7z M33,5.9
		c0,0.8,0.2,1.4,0.6,1.9s0.9,0.7,1.5,0.7c0.6,0,1.1-0.2,1.5-0.7s0.6-1.1,0.6-1.9V5.7c0-0.5-0.1-0.9-0.3-1.3s-0.4-0.7-0.8-0.9
		s-0.7-0.3-1.1-0.3c-0.6,0-1.1,0.2-1.5,0.7S33,5,33,5.8V5.9z"/>
	<path d="M41.8,8.5c0.5,0,0.9-0.1,1.2-0.4s0.5-0.6,0.5-1.1h0.7c0,0.4-0.1,0.7-0.4,1.1S43.4,8.7,43,8.8s-0.8,0.3-1.2,0.3
		c-0.8,0-1.5-0.3-2-0.9s-0.7-1.4-0.7-2.3V5.7c0-0.6,0.1-1.2,0.3-1.7s0.5-0.9,0.9-1.1s0.9-0.4,1.4-0.4c0.7,0,1.3,0.2,1.7,0.6
		s0.7,1,0.7,1.6h-0.7c0-0.5-0.2-0.9-0.5-1.2s-0.7-0.5-1.2-0.5c-0.6,0-1.1,0.2-1.5,0.7s-0.5,1.1-0.5,1.9V6c0,0.8,0.2,1.4,0.5,1.9
		S41.2,8.5,41.8,8.5z"/>
	<path d="M46.3,3.7c0.2-0.4,0.5-0.7,0.9-0.9s0.8-0.3,1.2-0.3c0.7,0,1.2,0.2,1.5,0.6s0.5,1,0.5,1.7V9h-0.7V4.8c0-0.6-0.1-1-0.4-1.3
		s-0.6-0.4-1.1-0.4c-0.4,0-0.8,0.1-1.2,0.4s-0.6,0.6-0.7,1.1V9h-0.7V0h0.7V3.7z"/>
	<path d="M56,7.4c0-0.3-0.1-0.6-0.4-0.8s-0.7-0.4-1.3-0.5s-1-0.3-1.3-0.4s-0.5-0.3-0.7-0.6s-0.2-0.5-0.2-0.8c0-0.5,0.2-0.9,0.6-1.2
		s1-0.5,1.6-0.5c0.7,0,1.3,0.2,1.7,0.5s0.6,0.8,0.6,1.4H56c0-0.4-0.2-0.7-0.5-0.9s-0.7-0.4-1.2-0.4c-0.5,0-0.8,0.1-1.1,0.3
		s-0.4,0.5-0.4,0.8c0,0.3,0.1,0.6,0.3,0.7s0.7,0.3,1.3,0.5s1.1,0.3,1.4,0.5s0.5,0.4,0.7,0.6s0.2,0.5,0.2,0.8c0,0.5-0.2,1-0.6,1.3
		s-1,0.5-1.7,0.5c-0.7,0-1.3-0.2-1.8-0.5s-0.7-0.8-0.7-1.4h0.7c0,0.4,0.2,0.7,0.5,1s0.7,0.3,1.3,0.3c0.5,0,0.9-0.1,1.2-0.3
		S56,7.7,56,7.4z"/>
	<path d="M60.6,8.5c0.5,0,0.9-0.1,1.2-0.4s0.5-0.6,0.5-1.1h0.7c0,0.4-0.1,0.7-0.4,1.1s-0.5,0.6-0.9,0.7s-0.8,0.3-1.2,0.3
		c-0.8,0-1.5-0.3-2-0.9s-0.7-1.4-0.7-2.3V5.7c0-0.6,0.1-1.2,0.3-1.7s0.5-0.9,0.9-1.1s0.9-0.4,1.4-0.4c0.7,0,1.3,0.2,1.7,0.6
		s0.7,1,0.7,1.6h-0.7c0-0.5-0.2-0.9-0.5-1.2s-0.7-0.5-1.2-0.5c-0.6,0-1.1,0.2-1.5,0.7s-0.5,1.1-0.5,1.9V6c0,0.8,0.2,1.4,0.5,1.9
		S60,8.5,60.6,8.5z"/>
	<path d="M65.2,3.7c0.2-0.4,0.5-0.7,0.9-0.9s0.8-0.3,1.2-0.3c0.7,0,1.2,0.2,1.5,0.6s0.5,1,0.5,1.7V9h-0.7V4.8c0-0.6-0.1-1-0.4-1.3
		s-0.6-0.4-1.1-0.4c-0.4,0-0.8,0.1-1.2,0.4s-0.6,0.6-0.7,1.1V9h-0.7V0h0.7V3.7z"/>
	<path d="M75.1,8.2c-0.4,0.6-1.1,0.9-2,0.9c-0.7,0-1.2-0.2-1.5-0.6S71,7.6,71,6.8V2.7h0.7v4c0,1.2,0.5,1.8,1.5,1.8
		c1,0,1.7-0.4,1.9-1.3V2.7h0.7V9h-0.7L75.1,8.2z"/>
	<path d="M78.4,9h-0.7V0h0.7V9z"/>
	<path d="M82.8,9.1c-0.5,0-1-0.1-1.5-0.4s-0.8-0.6-1-1.1S80,6.6,80,6V5.8c0-0.6,0.1-1.2,0.4-1.6s0.6-0.9,1-1.2s0.9-0.4,1.4-0.4
		c0.8,0,1.4,0.3,1.8,0.8s0.7,1.2,0.7,2.2v0.4h-4.5V6c0,0.7,0.2,1.3,0.6,1.8s0.9,0.7,1.6,0.7c0.4,0,0.7-0.1,1-0.2s0.5-0.4,0.8-0.7
		L85,8C84.5,8.7,83.8,9.1,82.8,9.1z M82.7,3.1c-0.5,0-1,0.2-1.3,0.6s-0.6,0.9-0.7,1.6h3.8V5.2c0-0.6-0.2-1.1-0.5-1.5
		S83.2,3.1,82.7,3.1z"/>
	<path d="M95.8,8c-0.2,0.4-0.6,0.6-1.2,0.8s-1.1,0.3-1.8,0.3c-0.7,0-1.3-0.2-1.8-0.5s-0.9-0.8-1.2-1.4s-0.4-1.3-0.4-2V4.2
		c0-1.2,0.3-2.1,0.9-2.8s1.4-1,2.4-1c0.9,0,1.6,0.2,2.1,0.7s0.9,1.1,1,1.8h-0.7c-0.1-0.6-0.4-1.1-0.8-1.4S93.4,1,92.7,1
		c-0.8,0-1.4,0.3-1.9,0.9s-0.7,1.4-0.7,2.4v1c0,0.6,0.1,1.2,0.3,1.7c0.2,0.5,0.5,0.9,0.9,1.2c0.4,0.3,0.9,0.4,1.4,0.4
		c0.6,0,1.2-0.1,1.6-0.3c0.3-0.1,0.5-0.3,0.6-0.5V5.6h-2.3V5h3V8z"/>
	<path d="M100.6,3.3c-0.1,0-0.3,0-0.5,0c-0.4,0-0.8,0.1-1.1,0.4s-0.5,0.6-0.6,1.1V9h-0.7V2.7h0.7l0,1c0.4-0.8,1-1.1,1.8-1.1
		c0.2,0,0.3,0,0.5,0.1L100.6,3.3z"/>
	<path d="M105.5,9c-0.1-0.2-0.1-0.5-0.1-0.9c-0.2,0.3-0.6,0.6-0.9,0.7s-0.8,0.3-1.2,0.3c-0.6,0-1.1-0.2-1.5-0.5s-0.6-0.8-0.6-1.3
		c0-0.6,0.3-1.1,0.8-1.5s1.2-0.5,2.1-0.5h1.3V4.6c0-0.5-0.1-0.8-0.4-1.1s-0.7-0.4-1.2-0.4c-0.5,0-0.9,0.1-1.2,0.4S102,4.1,102,4.4
		l-0.7,0c0-0.5,0.2-0.9,0.7-1.3s1-0.6,1.7-0.6c0.7,0,1.3,0.2,1.7,0.5s0.6,0.8,0.6,1.5v3c0,0.6,0.1,1.1,0.2,1.4V9H105.5z M103.3,8.5
		c0.5,0,0.9-0.1,1.3-0.3s0.6-0.5,0.8-0.9V5.9h-1.3c-0.7,0-1.2,0.1-1.6,0.4s-0.6,0.6-0.6,1c0,0.4,0.1,0.7,0.4,0.9
		S102.8,8.5,103.3,8.5z"/>
	<path d="M112,8.2c-0.4,0.6-1.1,0.9-2,0.9c-0.7,0-1.2-0.2-1.5-0.6s-0.5-1-0.5-1.7V2.7h0.7v4c0,1.2,0.5,1.8,1.5,1.8
		c1,0,1.7-0.4,1.9-1.3V2.7h0.7V9H112L112,8.2z"/>
	<path d="M119.6,5.9c0,1-0.2,1.8-0.7,2.4s-1,0.9-1.8,0.9c-0.9,0-1.6-0.3-2-1l0,0.9h-0.7V0h0.7v3.6c0.4-0.7,1.1-1,2-1
		c0.8,0,1.3,0.3,1.8,0.9s0.7,1.4,0.7,2.4V5.9z M118.9,5.8c0-0.8-0.2-1.5-0.5-1.9s-0.8-0.7-1.4-0.7c-0.4,0-0.8,0.1-1.1,0.3
		s-0.5,0.5-0.7,1v2.9c0.4,0.8,1,1.2,1.9,1.2c0.6,0,1-0.2,1.4-0.7S118.9,6.7,118.9,5.8z"/>
	<path d="M125.2,8.2c-0.4,0.6-1.1,0.9-2,0.9c-0.7,0-1.2-0.2-1.5-0.6s-0.5-1-0.5-1.7V2.7h0.7v4c0,1.2,0.5,1.8,1.5,1.8
		c1,0,1.7-0.4,1.9-1.3V2.7h0.7V9h-0.7L125.2,8.2z M121.9,0.8c0-0.1,0-0.2,0.1-0.3s0.2-0.1,0.4-0.1c0.1,0,0.3,0,0.4,0.1
		s0.1,0.2,0.1,0.3c0,0.1,0,0.2-0.1,0.3s-0.2,0.1-0.4,0.1c-0.2,0-0.3,0-0.4-0.1S121.9,0.9,121.9,0.8z M124.4,0.8c0-0.1,0-0.2,0.1-0.3
		s0.2-0.1,0.4-0.1c0.2,0,0.3,0,0.4,0.1s0.1,0.2,0.1,0.3c0,0.1,0,0.2-0.1,0.3s-0.2,0.1-0.4,0.1c-0.1,0-0.3,0-0.4-0.1
		S124.4,1,124.4,0.8z"/>
	<path d="M128.4,2.7l0,1.1c0.2-0.4,0.5-0.7,0.9-0.9s0.7-0.3,1.2-0.3c0.7,0,1.2,0.2,1.5,0.6s0.5,1,0.5,1.7V9h-0.7V4.8
		c0-0.6-0.1-1-0.4-1.3s-0.6-0.4-1.1-0.4c-0.4,0-0.8,0.1-1.2,0.4s-0.6,0.6-0.7,1.1V9h-0.7V2.7H128.4z"/>
	<path d="M134,5.8c0-1,0.2-1.8,0.7-2.4s1-0.9,1.8-0.9c0.9,0,1.5,0.3,2,1V0h0.7v9h-0.7l0-0.8c-0.4,0.6-1.1,1-2,1
		c-0.7,0-1.3-0.3-1.8-0.9S134,6.9,134,5.8L134,5.8z M134.7,5.9c0,0.8,0.2,1.4,0.5,1.9s0.8,0.7,1.4,0.7c0.9,0,1.5-0.4,1.8-1.1v-3
		c-0.4-0.8-1-1.2-1.8-1.2c-0.6,0-1,0.2-1.4,0.7S134.7,5,134.7,5.9z"/>
	<path d="M143.4,9.1c-0.5,0-1-0.1-1.5-0.4s-0.8-0.6-1-1.1s-0.4-1-0.4-1.6V5.8c0-0.6,0.1-1.2,0.4-1.6s0.6-0.9,1-1.2s0.9-0.4,1.4-0.4
		c0.8,0,1.4,0.3,1.8,0.8s0.7,1.2,0.7,2.2v0.4h-4.5V6c0,0.7,0.2,1.3,0.6,1.8s0.9,0.7,1.6,0.7c0.4,0,0.7-0.1,1-0.2s0.5-0.4,0.8-0.7
		l0.4,0.3C145.2,8.7,144.4,9.1,143.4,9.1z M143.3,3.1c-0.5,0-1,0.2-1.3,0.6s-0.6,0.9-0.7,1.6h3.8V5.2c0-0.6-0.2-1.1-0.5-1.5
		S143.8,3.1,143.3,3.1z"/>
	<path d="M147.9,2.7l0,1.1c0.2-0.4,0.5-0.7,0.9-0.9s0.7-0.3,1.2-0.3c0.7,0,1.2,0.2,1.5,0.6s0.5,1,0.5,1.7V9h-0.7V4.8
		c0-0.6-0.1-1-0.4-1.3s-0.6-0.4-1.1-0.4c-0.4,0-0.8,0.1-1.2,0.4s-0.6,0.6-0.7,1.1V9h-0.7V2.7H147.9z"/>
	<path d="M5.4,21.3c0-0.5-0.2-0.8-0.5-1.1S4,19.6,3.1,19.4s-1.5-0.5-1.9-0.8c-0.6-0.4-0.9-1-0.9-1.6c0-0.7,0.3-1.2,0.8-1.6
		s1.2-0.6,2.1-0.6c0.6,0,1.1,0.1,1.5,0.3s0.8,0.5,1,0.9s0.4,0.8,0.4,1.3H5.3c0-0.6-0.2-1.1-0.6-1.4c-0.4-0.4-0.9-0.5-1.6-0.5
		c-0.7,0-1.2,0.1-1.6,0.4C1.2,16.1,1,16.5,1,16.9c0,0.4,0.2,0.8,0.5,1.1s0.9,0.5,1.7,0.7s1.3,0.4,1.7,0.7s0.7,0.5,0.9,0.8
		s0.3,0.7,0.3,1.1c0,0.7-0.3,1.2-0.8,1.6s-1.2,0.6-2.1,0.6c-0.6,0-1.2-0.1-1.7-0.3s-0.9-0.5-1.1-0.9S0,21.5,0,21h0.7
		c0,0.6,0.2,1.1,0.7,1.4s1,0.5,1.8,0.5c0.7,0,1.2-0.1,1.6-0.4S5.4,21.8,5.4,21.3z"/>
	<path d="M9.8,22.9c0.5,0,0.9-0.1,1.2-0.4s0.5-0.6,0.5-1.1h0.7c0,0.4-0.1,0.7-0.4,1.1s-0.5,0.6-0.9,0.7s-0.8,0.3-1.2,0.3
		c-0.8,0-1.5-0.3-2-0.9s-0.7-1.4-0.7-2.3v-0.2c0-0.6,0.1-1.2,0.3-1.7s0.5-0.9,0.9-1.1s0.9-0.4,1.4-0.4c0.7,0,1.3,0.2,1.7,0.6
		s0.7,1,0.7,1.6h-0.7c0-0.5-0.2-0.9-0.5-1.2s-0.7-0.5-1.2-0.5c-0.6,0-1.1,0.2-1.5,0.7s-0.5,1.1-0.5,1.9v0.2c0,0.8,0.2,1.4,0.5,1.9
		S9.2,22.9,9.8,22.9z"/>
	<path d="M13.3,20.1c0-0.6,0.1-1.2,0.4-1.6s0.6-0.9,1-1.1s0.9-0.4,1.5-0.4c0.8,0,1.5,0.3,2.1,0.9s0.8,1.4,0.8,2.4v0.1
		c0,0.6-0.1,1.2-0.4,1.7s-0.6,0.9-1,1.1s-0.9,0.4-1.5,0.4c-0.8,0-1.5-0.3-2-0.9s-0.8-1.4-0.8-2.4V20.1z M14,20.3
		c0,0.8,0.2,1.4,0.6,1.9s0.9,0.7,1.5,0.7c0.6,0,1.1-0.2,1.5-0.7s0.6-1.1,0.6-1.9v-0.1c0-0.5-0.1-0.9-0.3-1.3s-0.4-0.7-0.8-0.9
		s-0.7-0.3-1.1-0.3c-0.6,0-1.1,0.2-1.5,0.7S14,19.4,14,20.2V20.3z"/>
	<path d="M21.2,23.4h-0.7v-9h0.7V23.4z"/>
	<path d="M27.1,23.4C27,23.2,27,22.9,27,22.5c-0.2,0.3-0.6,0.6-0.9,0.7s-0.8,0.3-1.2,0.3c-0.6,0-1.1-0.2-1.5-0.5s-0.6-0.8-0.6-1.3
		c0-0.6,0.3-1.1,0.8-1.5s1.2-0.5,2.1-0.5H27V19c0-0.5-0.1-0.8-0.4-1.1s-0.7-0.4-1.2-0.4c-0.5,0-0.9,0.1-1.2,0.4s-0.5,0.6-0.5,0.9
		l-0.7,0c0-0.5,0.2-0.9,0.7-1.3s1-0.6,1.7-0.6c0.7,0,1.3,0.2,1.7,0.5s0.6,0.8,0.6,1.5v3c0,0.6,0.1,1.1,0.2,1.4v0.1H27.1z M24.9,22.9
		c0.5,0,0.9-0.1,1.3-0.3s0.6-0.5,0.8-0.9v-1.4h-1.3c-0.7,0-1.2,0.1-1.6,0.4s-0.6,0.6-0.6,1c0,0.4,0.1,0.7,0.4,0.9
		S24.5,22.9,24.9,22.9z"/>
	<path d="M36.4,23.4c-0.1-0.2-0.1-0.5-0.1-0.9c-0.2,0.3-0.6,0.6-0.9,0.7s-0.8,0.3-1.2,0.3c-0.6,0-1.1-0.2-1.5-0.5s-0.6-0.8-0.6-1.3
		c0-0.6,0.3-1.1,0.8-1.5s1.2-0.5,2.1-0.5h1.3V19c0-0.5-0.1-0.8-0.4-1.1s-0.7-0.4-1.2-0.4c-0.5,0-0.9,0.1-1.2,0.4S33,18.5,33,18.8
		l-0.7,0c0-0.5,0.2-0.9,0.7-1.3s1-0.6,1.7-0.6c0.7,0,1.3,0.2,1.7,0.5S37,18.3,37,19v3c0,0.6,0.1,1.1,0.2,1.4v0.1H36.4z M34.2,22.9
		c0.5,0,0.9-0.1,1.3-0.3s0.6-0.5,0.8-0.9v-1.4h-1.3c-0.7,0-1.2,0.1-1.6,0.4s-0.6,0.6-0.6,1c0,0.4,0.1,0.7,0.4,0.9
		S33.8,22.9,34.2,22.9z"/>
	<path d="M42.9,22.6c-0.4,0.6-1.1,0.9-2,0.9c-0.7,0-1.2-0.2-1.5-0.6s-0.5-1-0.5-1.7v-4.1h0.7v4c0,1.2,0.5,1.8,1.5,1.8
		c1,0,1.7-0.4,1.9-1.3v-4.6h0.7v6.3H43L42.9,22.6z"/>
	<path d="M46.6,15.4v1.6h1.3v0.6h-1.3v4.2c0,0.4,0.1,0.6,0.2,0.8c0.1,0.2,0.3,0.3,0.6,0.3c0.1,0,0.3,0,0.6-0.1l0,0.6
		c-0.2,0.1-0.4,0.1-0.8,0.1c-0.5,0-0.8-0.1-1-0.4s-0.3-0.7-0.3-1.2v-4.2h-1.2v-0.6h1.2v-1.6H46.6z"/>
	<path d="M53.3,23.4c-0.1-0.2-0.1-0.5-0.1-0.9c-0.2,0.3-0.6,0.6-0.9,0.7s-0.8,0.3-1.2,0.3c-0.6,0-1.1-0.2-1.5-0.5S49,22.2,49,21.7
		c0-0.6,0.3-1.1,0.8-1.5s1.2-0.5,2.1-0.5h1.3V19c0-0.5-0.1-0.8-0.4-1.1s-0.7-0.4-1.2-0.4c-0.5,0-0.9,0.1-1.2,0.4s-0.5,0.6-0.5,0.9
		l-0.7,0c0-0.5,0.2-0.9,0.7-1.3s1-0.6,1.7-0.6c0.7,0,1.3,0.2,1.7,0.5s0.6,0.8,0.6,1.5v3c0,0.6,0.1,1.1,0.2,1.4v0.1H53.3z M51.1,22.9
		c0.5,0,0.9-0.1,1.3-0.3s0.6-0.5,0.8-0.9v-1.4h-1.3c-0.7,0-1.2,0.1-1.6,0.4s-0.6,0.6-0.6,1c0,0.4,0.1,0.7,0.4,0.9
		S50.7,22.9,51.1,22.9z"/>
	<path d="M62.5,21.8c0-0.3-0.1-0.6-0.4-0.8s-0.7-0.4-1.3-0.5s-1-0.3-1.3-0.4s-0.5-0.3-0.7-0.6s-0.2-0.5-0.2-0.8
		c0-0.5,0.2-0.9,0.6-1.2s1-0.5,1.6-0.5c0.7,0,1.3,0.2,1.7,0.5s0.6,0.8,0.6,1.4h-0.7c0-0.4-0.2-0.7-0.5-0.9s-0.7-0.4-1.2-0.4
		c-0.5,0-0.8,0.1-1.1,0.3s-0.4,0.5-0.4,0.8c0,0.3,0.1,0.6,0.3,0.7s0.7,0.3,1.3,0.5s1.1,0.3,1.4,0.5s0.5,0.4,0.7,0.6s0.2,0.5,0.2,0.8
		c0,0.5-0.2,1-0.6,1.3s-1,0.5-1.7,0.5c-0.7,0-1.3-0.2-1.8-0.5s-0.7-0.8-0.7-1.4H59c0,0.4,0.2,0.7,0.5,1s0.7,0.3,1.3,0.3
		c0.5,0,0.9-0.1,1.2-0.3S62.5,22.1,62.5,21.8z"/>
	<path d="M69.8,20.3c0,1-0.2,1.8-0.7,2.4s-1,0.9-1.8,0.9c-0.9,0-1.5-0.3-2-0.9v3.2h-0.7v-8.8h0.7l0,0.9c0.5-0.7,1.1-1,2-1
		c0.8,0,1.4,0.3,1.8,0.9S69.8,19.2,69.8,20.3L69.8,20.3z M69.1,20.2c0-0.8-0.2-1.4-0.5-1.9s-0.8-0.7-1.4-0.7c-0.4,0-0.8,0.1-1.1,0.3
		s-0.5,0.5-0.7,0.9v3c0.2,0.4,0.4,0.6,0.7,0.8s0.7,0.3,1.1,0.3c0.6,0,1-0.2,1.4-0.7S69.1,21.1,69.1,20.2z"/>
	<path d="M73.8,23.5c-0.5,0-1-0.1-1.5-0.4s-0.8-0.6-1-1.1S71,21,71,20.4v-0.3c0-0.6,0.1-1.2,0.4-1.6s0.6-0.9,1-1.2s0.9-0.4,1.4-0.4
		c0.8,0,1.4,0.3,1.8,0.8s0.7,1.2,0.7,2.2v0.4h-4.5v0.1c0,0.7,0.2,1.3,0.6,1.8s0.9,0.7,1.6,0.7c0.4,0,0.7-0.1,1-0.2s0.5-0.4,0.8-0.7
		l0.4,0.3C75.6,23.1,74.8,23.5,73.8,23.5z M73.7,17.5c-0.5,0-1,0.2-1.3,0.6s-0.6,0.9-0.7,1.6h3.8v-0.1c0-0.6-0.2-1.1-0.5-1.5
		S74.2,17.5,73.7,17.5z"/>
	<path d="M78.1,22.8h4.1v0.6h-5v-0.5l3.8-5.2h-3.7v-0.6h4.6v0.5L78.1,22.8z"/>
	<path d="M83.4,15.2c0-0.1,0-0.2,0.1-0.3c0.1-0.1,0.2-0.1,0.4-0.1s0.3,0,0.4,0.1c0.1,0.1,0.1,0.2,0.1,0.3s0,0.2-0.1,0.3
		s-0.2,0.1-0.4,0.1s-0.3,0-0.4-0.1S83.4,15.4,83.4,15.2z M84.2,23.4h-0.7v-6.3h0.7V23.4z"/>
	<path d="M90.1,23.4C90,23.2,90,22.9,90,22.5c-0.2,0.3-0.6,0.6-0.9,0.7s-0.8,0.3-1.2,0.3c-0.6,0-1.1-0.2-1.5-0.5s-0.6-0.8-0.6-1.3
		c0-0.6,0.3-1.1,0.8-1.5s1.2-0.5,2.1-0.5H90V19c0-0.5-0.1-0.8-0.4-1.1s-0.7-0.4-1.2-0.4c-0.5,0-0.9,0.1-1.2,0.4s-0.5,0.6-0.5,0.9
		l-0.7,0c0-0.5,0.2-0.9,0.7-1.3s1-0.6,1.7-0.6c0.7,0,1.3,0.2,1.7,0.5s0.6,0.8,0.6,1.5v3c0,0.6,0.1,1.1,0.2,1.4v0.1H90.1z M87.9,22.9
		c0.5,0,0.9-0.1,1.3-0.3s0.6-0.5,0.8-0.9v-1.4h-1.3c-0.7,0-1.2,0.1-1.6,0.4s-0.6,0.6-0.6,1c0,0.4,0.1,0.7,0.4,0.9
		S87.5,22.9,87.9,22.9z"/>
	<path d="M93.3,23.4h-0.7v-9h0.7V23.4z"/>
	<path d="M95.2,15.2c0-0.1,0-0.2,0.1-0.3c0.1-0.1,0.2-0.1,0.4-0.1s0.3,0,0.4,0.1c0.1,0.1,0.1,0.2,0.1,0.3s0,0.2-0.1,0.3
		s-0.2,0.1-0.4,0.1s-0.3,0-0.4-0.1S95.2,15.4,95.2,15.2z M96,23.4h-0.7v-6.3H96V23.4z"/>
	<path d="M101.7,21.8c0-0.3-0.1-0.6-0.4-0.8s-0.7-0.4-1.3-0.5s-1-0.3-1.3-0.4s-0.5-0.3-0.7-0.6s-0.2-0.5-0.2-0.8
		c0-0.5,0.2-0.9,0.6-1.2s1-0.5,1.6-0.5c0.7,0,1.3,0.2,1.7,0.5s0.6,0.8,0.6,1.4h-0.7c0-0.4-0.2-0.7-0.5-0.9s-0.7-0.4-1.2-0.4
		c-0.5,0-0.8,0.1-1.1,0.3s-0.4,0.5-0.4,0.8c0,0.3,0.1,0.6,0.3,0.7s0.7,0.3,1.3,0.5s1.1,0.3,1.4,0.5s0.5,0.4,0.7,0.6s0.2,0.5,0.2,0.8
		c0,0.5-0.2,1-0.6,1.3s-1,0.5-1.7,0.5c-0.7,0-1.3-0.2-1.8-0.5s-0.7-0.8-0.7-1.4h0.7c0,0.4,0.2,0.7,0.5,1s0.7,0.3,1.3,0.3
		c0.5,0,0.9-0.1,1.2-0.3S101.7,22.1,101.7,21.8z"/>
	<path d="M108,23.4c-0.1-0.2-0.1-0.5-0.1-0.9c-0.2,0.3-0.6,0.6-0.9,0.7s-0.8,0.3-1.2,0.3c-0.6,0-1.1-0.2-1.5-0.5s-0.6-0.8-0.6-1.3
		c0-0.6,0.3-1.1,0.8-1.5s1.2-0.5,2.1-0.5h1.3V19c0-0.5-0.1-0.8-0.4-1.1s-0.7-0.4-1.2-0.4c-0.5,0-0.9,0.1-1.2,0.4s-0.5,0.6-0.5,0.9
		l-0.7,0c0-0.5,0.2-0.9,0.7-1.3s1-0.6,1.7-0.6c0.7,0,1.3,0.2,1.7,0.5s0.6,0.8,0.6,1.5v3c0,0.6,0.1,1.1,0.2,1.4v0.1H108z M105.8,22.9
		c0.5,0,0.9-0.1,1.3-0.3s0.6-0.5,0.8-0.9v-1.4h-1.3c-0.7,0-1.2,0.1-1.6,0.4s-0.6,0.6-0.6,1c0,0.4,0.1,0.7,0.4,0.9
		S105.4,22.9,105.8,22.9z"/>
	<path d="M110.1,20.2c0-1,0.2-1.8,0.7-2.4s1-0.9,1.8-0.9c0.9,0,1.5,0.3,2,1v-3.6h0.7v9h-0.7l0-0.8c-0.4,0.6-1.1,1-2,1
		c-0.7,0-1.3-0.3-1.8-0.9S110.1,21.3,110.1,20.2L110.1,20.2z M110.9,20.3c0,0.8,0.2,1.4,0.5,1.9s0.8,0.7,1.4,0.7
		c0.9,0,1.5-0.4,1.8-1.1v-3c-0.4-0.8-1-1.2-1.8-1.2c-0.6,0-1,0.2-1.4,0.7S110.9,19.4,110.9,20.3z"/>
	<path d="M121.1,23.4c-0.1-0.2-0.1-0.5-0.1-0.9c-0.2,0.3-0.6,0.6-0.9,0.7s-0.8,0.3-1.2,0.3c-0.6,0-1.1-0.2-1.5-0.5s-0.6-0.8-0.6-1.3
		c0-0.6,0.3-1.1,0.8-1.5s1.2-0.5,2.1-0.5h1.3V19c0-0.5-0.1-0.8-0.4-1.1s-0.7-0.4-1.2-0.4c-0.5,0-0.9,0.1-1.2,0.4s-0.5,0.6-0.5,0.9
		l-0.7,0c0-0.5,0.2-0.9,0.7-1.3s1-0.6,1.7-0.6c0.7,0,1.3,0.2,1.7,0.5s0.6,0.8,0.6,1.5v3c0,0.6,0.1,1.1,0.2,1.4v0.1H121.1z
		 M118.9,22.9c0.5,0,0.9-0.1,1.3-0.3s0.6-0.5,0.8-0.9v-1.4h-1.3c-0.7,0-1.2,0.1-1.6,0.4s-0.6,0.6-0.6,1c0,0.4,0.1,0.7,0.4,0.9
		S118.5,22.9,118.9,22.9z"/>
	<path d="M126.2,20.2c0-1,0.2-1.8,0.7-2.4s1-0.9,1.8-0.9c0.9,0,1.5,0.3,2,1v-3.6h0.7v9h-0.7l0-0.8c-0.4,0.6-1.1,1-2,1
		c-0.7,0-1.3-0.3-1.8-0.9S126.2,21.3,126.2,20.2L126.2,20.2z M126.9,20.3c0,0.8,0.2,1.4,0.5,1.9s0.8,0.7,1.4,0.7
		c0.9,0,1.5-0.4,1.8-1.1v-3c-0.4-0.8-1-1.2-1.8-1.2c-0.6,0-1,0.2-1.4,0.7S126.9,19.4,126.9,20.3z"/>
	<path d="M137.1,23.4c-0.1-0.2-0.1-0.5-0.1-0.9c-0.2,0.3-0.6,0.6-0.9,0.7s-0.8,0.3-1.2,0.3c-0.6,0-1.1-0.2-1.5-0.5s-0.6-0.8-0.6-1.3
		c0-0.6,0.3-1.1,0.8-1.5s1.2-0.5,2.1-0.5h1.3V19c0-0.5-0.1-0.8-0.4-1.1s-0.7-0.4-1.2-0.4c-0.5,0-0.9,0.1-1.2,0.4s-0.5,0.6-0.5,0.9
		l-0.7,0c0-0.5,0.2-0.9,0.7-1.3s1-0.6,1.7-0.6c0.7,0,1.3,0.2,1.7,0.5s0.6,0.8,0.6,1.5v3c0,0.6,0.1,1.1,0.2,1.4v0.1H137.1z
		 M134.9,22.9c0.5,0,0.9-0.1,1.3-0.3s0.6-0.5,0.8-0.9v-1.4h-1.3c-0.7,0-1.2,0.1-1.6,0.4s-0.6,0.6-0.6,1c0,0.4,0.1,0.7,0.4,0.9
		S134.5,22.9,134.9,22.9z"/>
	<path d="M140.3,23.4h-0.7v-9h0.7V23.4z"/>
	<path d="M151.5,22.4c-0.2,0.4-0.6,0.6-1.2,0.8s-1.1,0.3-1.8,0.3c-0.7,0-1.3-0.2-1.8-0.5s-0.9-0.8-1.2-1.4s-0.4-1.3-0.4-2v-1.1
		c0-1.2,0.3-2.1,0.9-2.8s1.4-1,2.4-1c0.9,0,1.6,0.2,2.1,0.7s0.9,1.1,1,1.8h-0.7c-0.1-0.6-0.4-1.1-0.8-1.4s-0.9-0.5-1.6-0.5
		c-0.8,0-1.4,0.3-1.9,0.9s-0.7,1.4-0.7,2.4v1c0,0.6,0.1,1.2,0.3,1.7c0.2,0.5,0.5,0.9,0.9,1.2c0.4,0.3,0.9,0.4,1.4,0.4
		c0.6,0,1.2-0.1,1.6-0.3c0.3-0.1,0.5-0.3,0.6-0.5V20h-2.3v-0.6h3V22.4z"/>
	<path d="M156.3,17.7c-0.1,0-0.3,0-0.5,0c-0.4,0-0.8,0.1-1.1,0.4s-0.5,0.6-0.6,1.1v4.4h-0.7v-6.3h0.7l0,1c0.4-0.8,1-1.1,1.8-1.1
		c0.2,0,0.3,0,0.5,0.1L156.3,17.7z"/>
	<path d="M157.3,15.2c0-0.1,0-0.2,0.1-0.3c0.1-0.1,0.2-0.1,0.4-0.1s0.3,0,0.4,0.1c0.1,0.1,0.1,0.2,0.1,0.3s0,0.2-0.1,0.3
		s-0.2,0.1-0.4,0.1s-0.3,0-0.4-0.1S157.3,15.4,157.3,15.2z M158.2,23.4h-0.7v-6.3h0.7V23.4z"/>
	<path d="M163.9,21.8c0-0.3-0.1-0.6-0.4-0.8s-0.7-0.4-1.3-0.5s-1-0.3-1.3-0.4s-0.5-0.3-0.7-0.6S160,19,160,18.7
		c0-0.5,0.2-0.9,0.6-1.2s1-0.5,1.6-0.5c0.7,0,1.3,0.2,1.7,0.5s0.6,0.8,0.6,1.4h-0.7c0-0.4-0.2-0.7-0.5-0.9s-0.7-0.4-1.2-0.4
		c-0.5,0-0.8,0.1-1.1,0.3s-0.4,0.5-0.4,0.8c0,0.3,0.1,0.6,0.3,0.7s0.7,0.3,1.3,0.5s1.1,0.3,1.4,0.5s0.5,0.4,0.7,0.6s0.2,0.5,0.2,0.8
		c0,0.5-0.2,1-0.6,1.3s-1,0.5-1.7,0.5c-0.7,0-1.3-0.2-1.8-0.5s-0.7-0.8-0.7-1.4h0.7c0,0.4,0.2,0.7,0.5,1s0.7,0.3,1.3,0.3
		c0.5,0,0.9-0.1,1.2-0.3S163.9,22.1,163.9,21.8z"/>
	<path d="M168.5,22.9c0.5,0,0.9-0.1,1.2-0.4s0.5-0.6,0.5-1.1h0.7c0,0.4-0.1,0.7-0.4,1.1s-0.5,0.6-0.9,0.7s-0.8,0.3-1.2,0.3
		c-0.8,0-1.5-0.3-2-0.9s-0.7-1.4-0.7-2.3v-0.2c0-0.6,0.1-1.2,0.3-1.7s0.5-0.9,0.9-1.1s0.9-0.4,1.4-0.4c0.7,0,1.3,0.2,1.7,0.6
		s0.7,1,0.7,1.6h-0.7c0-0.5-0.2-0.9-0.5-1.2s-0.7-0.5-1.2-0.5c-0.6,0-1.1,0.2-1.5,0.7s-0.5,1.1-0.5,1.9v0.2c0,0.8,0.2,1.4,0.5,1.9
		S167.9,22.9,168.5,22.9z"/>
	<path d="M173,18.1c0.2-0.4,0.5-0.7,0.9-0.9s0.8-0.3,1.2-0.3c0.7,0,1.2,0.2,1.5,0.6s0.5,1,0.5,1.7v4.2h-0.7v-4.2
		c0-0.6-0.1-1-0.4-1.3s-0.6-0.4-1.1-0.4c-0.4,0-0.8,0.1-1.2,0.4s-0.6,0.6-0.7,1.1v4.3h-0.7v-9h0.7V18.1z"/>
	<path d="M183,22.6c-0.4,0.6-1.1,0.9-2,0.9c-0.7,0-1.2-0.2-1.5-0.6s-0.5-1-0.5-1.7v-4.1h0.7v4c0,1.2,0.5,1.8,1.5,1.8
		c1,0,1.7-0.4,1.9-1.3v-4.6h0.7v6.3H183L183,22.6z"/>
	<path d="M186.2,17.1l0,1.1c0.2-0.4,0.5-0.7,0.9-0.9s0.7-0.3,1.2-0.3c0.7,0,1.2,0.2,1.5,0.6s0.5,1,0.5,1.7v4.2h-0.7v-4.2
		c0-0.6-0.1-1-0.4-1.3s-0.6-0.4-1.1-0.4c-0.4,0-0.8,0.1-1.2,0.4s-0.6,0.6-0.7,1.1v4.3h-0.7v-6.3H186.2z"/>
	<path d="M5.4,35.7c0-0.5-0.2-0.8-0.5-1.1S4,34,3.1,33.8S1.5,33.3,1.1,33c-0.6-0.4-0.9-1-0.9-1.6c0-0.7,0.3-1.2,0.8-1.6
		s1.2-0.6,2.1-0.6c0.6,0,1.1,0.1,1.5,0.3s0.8,0.5,1,0.9s0.4,0.8,0.4,1.3H5.3c0-0.6-0.2-1.1-0.6-1.4c-0.4-0.4-0.9-0.5-1.6-0.5
		c-0.7,0-1.2,0.1-1.6,0.4C1.2,30.5,1,30.9,1,31.3c0,0.4,0.2,0.8,0.5,1.1s0.9,0.5,1.7,0.7s1.3,0.4,1.7,0.7s0.7,0.5,0.9,0.8
		s0.3,0.7,0.3,1.1c0,0.7-0.3,1.2-0.8,1.6s-1.2,0.6-2.1,0.6c-0.6,0-1.2-0.1-1.7-0.3s-0.9-0.5-1.1-0.9S0,35.9,0,35.4h0.7
		c0,0.6,0.2,1.1,0.7,1.4s1,0.5,1.8,0.5c0.7,0,1.2-0.1,1.6-0.4S5.4,36.2,5.4,35.7z"/>
	<path d="M9.8,37.3c0.5,0,0.9-0.1,1.2-0.4s0.5-0.6,0.5-1.1h0.7c0,0.4-0.1,0.7-0.4,1.1s-0.5,0.6-0.9,0.7s-0.8,0.3-1.2,0.3
		c-0.8,0-1.5-0.3-2-0.9s-0.7-1.4-0.7-2.3v-0.2c0-0.6,0.1-1.2,0.3-1.7S8,32,8.4,31.7s0.9-0.4,1.4-0.4c0.7,0,1.3,0.2,1.7,0.6
		s0.7,1,0.7,1.6h-0.7c0-0.5-0.2-0.9-0.5-1.2s-0.7-0.5-1.2-0.5c-0.6,0-1.1,0.2-1.5,0.7s-0.5,1.1-0.5,1.9v0.2c0,0.8,0.2,1.4,0.5,1.9
		S9.2,37.3,9.8,37.3z"/>
	<path d="M17.8,37c-0.4,0.6-1.1,0.9-2,0.9c-0.7,0-1.2-0.2-1.5-0.6s-0.5-1-0.5-1.7v-4.1h0.7v4c0,1.2,0.5,1.8,1.5,1.8
		c1,0,1.7-0.4,1.9-1.3v-4.6h0.7v6.3h-0.7L17.8,37z"/>
	<path d="M19.9,34.5c0-0.6,0.1-1.2,0.4-1.6s0.6-0.9,1-1.1s0.9-0.4,1.5-0.4c0.8,0,1.5,0.3,2.1,0.9s0.8,1.4,0.8,2.4v0.1
		c0,0.6-0.1,1.2-0.4,1.7s-0.6,0.9-1,1.1s-0.9,0.4-1.5,0.4c-0.8,0-1.5-0.3-2-0.9s-0.8-1.4-0.8-2.4V34.5z M20.6,34.7
		c0,0.8,0.2,1.4,0.6,1.9s0.9,0.7,1.5,0.7c0.6,0,1.1-0.2,1.5-0.7s0.6-1.1,0.6-1.9v-0.1c0-0.5-0.1-0.9-0.3-1.3s-0.4-0.7-0.8-0.9
		s-0.7-0.3-1.1-0.3c-0.6,0-1.1,0.2-1.5,0.7s-0.6,1.1-0.6,1.9V34.7z"/>
	<path d="M27.8,37.8h-0.7v-9h0.7V37.8z"/>
	<path d="M33.7,37.8c-0.1-0.2-0.1-0.5-0.1-0.9c-0.2,0.3-0.6,0.6-0.9,0.7s-0.8,0.3-1.2,0.3c-0.6,0-1.1-0.2-1.5-0.5s-0.6-0.8-0.6-1.3
		c0-0.6,0.3-1.1,0.8-1.5s1.2-0.5,2.1-0.5h1.3v-0.7c0-0.5-0.1-0.8-0.4-1.1s-0.7-0.4-1.2-0.4c-0.5,0-0.9,0.1-1.2,0.4s-0.5,0.6-0.5,0.9
		l-0.7,0c0-0.5,0.2-0.9,0.7-1.3s1-0.6,1.7-0.6c0.7,0,1.3,0.2,1.7,0.5s0.6,0.8,0.6,1.5v3c0,0.6,0.1,1.1,0.2,1.4v0.1H33.7z M31.5,37.3
		c0.5,0,0.9-0.1,1.3-0.3s0.6-0.5,0.8-0.9v-1.4h-1.3c-0.7,0-1.2,0.1-1.6,0.4s-0.6,0.6-0.6,1c0,0.4,0.1,0.7,0.4,0.9
		S31.1,37.3,31.5,37.3z"/>
	<path d="M43.1,37c-0.4,0.6-1.1,0.9-2,0.9c-0.7,0-1.2-0.2-1.5-0.6s-0.5-1-0.5-1.7v-4.1h0.7v4c0,1.2,0.5,1.8,1.5,1.8
		c1,0,1.7-0.4,1.9-1.3v-4.6h0.7v6.3h-0.7L43.1,37z"/>
	<path d="M46.3,31.5l0,1.1c0.2-0.4,0.5-0.7,0.9-0.9s0.7-0.3,1.2-0.3c0.7,0,1.2,0.2,1.5,0.6s0.5,1,0.5,1.7v4.2h-0.7v-4.2
		c0-0.6-0.1-1-0.4-1.3S48.7,32,48.2,32c-0.4,0-0.8,0.1-1.2,0.4s-0.6,0.6-0.7,1.1v4.3h-0.7v-6.3H46.3z"/>
	<path d="M52.2,29.6c0-0.1,0-0.2,0.1-0.3c0.1-0.1,0.2-0.1,0.4-0.1s0.3,0,0.4,0.1c0.1,0.1,0.1,0.2,0.1,0.3s0,0.2-0.1,0.3
		s-0.2,0.1-0.4,0.1s-0.3,0-0.4-0.1S52.2,29.8,52.2,29.6z M53,37.8h-0.7v-6.3H53V37.8z"/>
	<path d="M56.9,36.8l1.9-5.4h0.7l-2.4,6.3h-0.6l-2.4-6.3h0.7L56.9,36.8z"/>
	<path d="M63.1,37.9c-0.5,0-1-0.1-1.5-0.4s-0.8-0.6-1-1.1s-0.4-1-0.4-1.6v-0.3c0-0.6,0.1-1.2,0.4-1.6s0.6-0.9,1-1.2s0.9-0.4,1.4-0.4
		c0.8,0,1.4,0.3,1.8,0.8s0.7,1.2,0.7,2.2v0.4h-4.5v0.1c0,0.7,0.2,1.3,0.6,1.8s0.9,0.7,1.6,0.7c0.4,0,0.7-0.1,1-0.2s0.5-0.4,0.8-0.7
		l0.4,0.3C64.8,37.5,64,37.9,63.1,37.9z M62.9,31.9c-0.5,0-1,0.2-1.3,0.6s-0.6,0.9-0.7,1.6h3.8V34c0-0.6-0.2-1.1-0.5-1.5
		S63.5,31.9,62.9,31.9z"/>
	<path d="M69.7,32.1c-0.1,0-0.3,0-0.5,0c-0.4,0-0.8,0.1-1.1,0.4s-0.5,0.6-0.6,1.1v4.4h-0.7v-6.3h0.7l0,1c0.4-0.8,1-1.1,1.8-1.1
		c0.2,0,0.3,0,0.5,0.1L69.7,32.1z"/>
	<path d="M74.6,36.2c0-0.3-0.1-0.6-0.4-0.8S73.5,35,73,34.9s-1-0.3-1.3-0.4s-0.5-0.3-0.7-0.6s-0.2-0.5-0.2-0.8
		c0-0.5,0.2-0.9,0.6-1.2s1-0.5,1.6-0.5c0.7,0,1.3,0.2,1.7,0.5s0.6,0.8,0.6,1.4h-0.7c0-0.4-0.2-0.7-0.5-0.9s-0.7-0.4-1.2-0.4
		c-0.5,0-0.8,0.1-1.1,0.3s-0.4,0.5-0.4,0.8c0,0.3,0.1,0.6,0.3,0.7s0.7,0.3,1.3,0.5s1.1,0.3,1.4,0.5s0.5,0.4,0.7,0.6s0.2,0.5,0.2,0.8
		c0,0.5-0.2,1-0.6,1.3s-1,0.5-1.7,0.5c-0.7,0-1.3-0.2-1.8-0.5s-0.7-0.8-0.7-1.4h0.7c0,0.4,0.2,0.7,0.5,1s0.7,0.3,1.3,0.3
		c0.5,0,0.9-0.1,1.2-0.3S74.6,36.5,74.6,36.2z"/>
	<path d="M76.9,29.6c0-0.1,0-0.2,0.1-0.3c0.1-0.1,0.2-0.1,0.4-0.1s0.3,0,0.4,0.1c0.1,0.1,0.1,0.2,0.1,0.3s0,0.2-0.1,0.3
		s-0.2,0.1-0.4,0.1s-0.3,0-0.4-0.1S76.9,29.8,76.9,29.6z M77.7,37.8H77v-6.3h0.7V37.8z"/>
	<path d="M80.7,29.8v1.6H82V32h-1.3v4.2c0,0.4,0.1,0.6,0.2,0.8c0.1,0.2,0.3,0.3,0.6,0.3c0.1,0,0.3,0,0.6-0.1l0,0.6
		c-0.2,0.1-0.4,0.1-0.8,0.1c-0.5,0-0.8-0.1-1-0.4S80,36.8,80,36.3V32h-1.2v-0.6H80v-1.6H80.7z"/>
	<path d="M87.5,37.8c-0.1-0.2-0.1-0.5-0.1-0.9c-0.2,0.3-0.6,0.6-0.9,0.7s-0.8,0.3-1.2,0.3c-0.6,0-1.1-0.2-1.5-0.5s-0.6-0.8-0.6-1.3
		c0-0.6,0.3-1.1,0.8-1.5s1.2-0.5,2.1-0.5h1.3v-0.7c0-0.5-0.1-0.8-0.4-1.1s-0.7-0.4-1.2-0.4c-0.5,0-0.9,0.1-1.2,0.4S84,32.9,84,33.2
		l-0.7,0c0-0.5,0.2-0.9,0.7-1.3s1-0.6,1.7-0.6c0.7,0,1.3,0.2,1.7,0.5s0.6,0.8,0.6,1.5v3c0,0.6,0.1,1.1,0.2,1.4v0.1H87.5z M85.3,37.3
		c0.5,0,0.9-0.1,1.3-0.3s0.6-0.5,0.8-0.9v-1.4h-1.3c-0.7,0-1.2,0.1-1.6,0.4s-0.6,0.6-0.6,1c0,0.4,0.1,0.7,0.4,0.9
		S84.8,37.3,85.3,37.3z"/>
	<path d="M92.8,32.1c-0.1,0-0.3,0-0.5,0c-0.4,0-0.8,0.1-1.1,0.4s-0.5,0.6-0.6,1.1v4.4h-0.7v-6.3h0.7l0,1c0.4-0.8,1-1.1,1.8-1.1
		c0.2,0,0.3,0,0.5,0.1L92.8,32.1z"/>
	<path d="M93.9,29.6c0-0.1,0-0.2,0.1-0.3c0.1-0.1,0.2-0.1,0.4-0.1s0.3,0,0.4,0.1c0.1,0.1,0.1,0.2,0.1,0.3s0,0.2-0.1,0.3
		s-0.2,0.1-0.4,0.1s-0.3,0-0.4-0.1S93.9,29.8,93.9,29.6z M94.7,37.8H94v-6.3h0.7V37.8z"/>
	<path d="M100.6,37.8c-0.1-0.2-0.1-0.5-0.1-0.9c-0.2,0.3-0.6,0.6-0.9,0.7s-0.8,0.3-1.2,0.3c-0.6,0-1.1-0.2-1.5-0.5s-0.6-0.8-0.6-1.3
		c0-0.6,0.3-1.1,0.8-1.5s1.2-0.5,2.1-0.5h1.3v-0.7c0-0.5-0.1-0.8-0.4-1.1s-0.7-0.4-1.2-0.4c-0.5,0-0.9,0.1-1.2,0.4s-0.5,0.6-0.5,0.9
		l-0.7,0c0-0.5,0.2-0.9,0.7-1.3s1-0.6,1.7-0.6c0.7,0,1.3,0.2,1.7,0.5s0.6,0.8,0.6,1.5v3c0,0.6,0.1,1.1,0.2,1.4v0.1H100.6z
		 M98.4,37.3c0.5,0,0.9-0.1,1.3-0.3s0.6-0.5,0.8-0.9v-1.4h-1.3c-0.7,0-1.2,0.1-1.6,0.4s-0.6,0.6-0.6,1c0,0.4,0.1,0.7,0.4,0.9
		S98,37.3,98.4,37.3z"/>
	<path d="M111.1,34.7c0,1-0.2,1.8-0.7,2.4s-1,0.9-1.8,0.9c-0.9,0-1.5-0.3-2-0.9v3.2H106v-8.8h0.7l0,0.9c0.5-0.7,1.1-1,2-1
		c0.8,0,1.4,0.3,1.8,0.9S111.1,33.6,111.1,34.7L111.1,34.7z M110.4,34.6c0-0.8-0.2-1.4-0.5-1.9s-0.8-0.7-1.4-0.7
		c-0.4,0-0.8,0.1-1.1,0.3s-0.5,0.5-0.7,0.9v3c0.2,0.4,0.4,0.6,0.7,0.8s0.7,0.3,1.1,0.3c0.6,0,1-0.2,1.4-0.7S110.4,35.5,110.4,34.6z"
		/>
	<path d="M115.5,32.1c-0.1,0-0.3,0-0.5,0c-0.4,0-0.8,0.1-1.1,0.4s-0.5,0.6-0.6,1.1v4.4h-0.7v-6.3h0.7l0,1c0.4-0.8,1-1.1,1.8-1.1
		c0.2,0,0.3,0,0.5,0.1L115.5,32.1z"/>
	<path d="M116.1,34.5c0-0.6,0.1-1.2,0.4-1.6s0.6-0.9,1-1.1s0.9-0.4,1.5-0.4c0.8,0,1.5,0.3,2.1,0.9s0.8,1.4,0.8,2.4v0.1
		c0,0.6-0.1,1.2-0.4,1.7s-0.6,0.9-1,1.1s-0.9,0.4-1.5,0.4c-0.8,0-1.5-0.3-2-0.9s-0.8-1.4-0.8-2.4V34.5z M116.8,34.7
		c0,0.8,0.2,1.4,0.6,1.9s0.9,0.7,1.5,0.7c0.6,0,1.1-0.2,1.5-0.7s0.6-1.1,0.6-1.9v-0.1c0-0.5-0.1-0.9-0.3-1.3s-0.4-0.7-0.8-0.9
		s-0.7-0.3-1.1-0.3c-0.6,0-1.1,0.2-1.5,0.7s-0.6,1.1-0.6,1.9V34.7z"/>
	<path d="M123.8,37.8V32h-1v-0.6h1v-0.8c0-0.6,0.2-1.1,0.5-1.5s0.8-0.5,1.4-0.5c0.3,0,0.5,0,0.7,0.1l-0.1,0.6
		c-0.2,0-0.4-0.1-0.6-0.1c-0.4,0-0.7,0.1-0.9,0.4s-0.3,0.6-0.3,1v0.8h1.5V32h-1.5v5.8H123.8z"/>
	<path d="M129.5,37.9c-0.5,0-1-0.1-1.5-0.4s-0.8-0.6-1-1.1s-0.4-1-0.4-1.6v-0.3c0-0.6,0.1-1.2,0.4-1.6s0.6-0.9,1-1.2
		s0.9-0.4,1.4-0.4c0.8,0,1.4,0.3,1.8,0.8s0.7,1.2,0.7,2.2v0.4h-4.5v0.1c0,0.7,0.2,1.3,0.6,1.8s0.9,0.7,1.6,0.7c0.4,0,0.7-0.1,1-0.2
		s0.5-0.4,0.8-0.7l0.4,0.3C131.3,37.5,130.5,37.9,129.5,37.9z M129.4,31.9c-0.5,0-1,0.2-1.3,0.6s-0.6,0.9-0.7,1.6h3.8V34
		c0-0.6-0.2-1.1-0.5-1.5S129.9,31.9,129.4,31.9z"/>
	<path d="M137.1,36.2c0-0.3-0.1-0.6-0.4-0.8s-0.7-0.4-1.3-0.5s-1-0.3-1.3-0.4s-0.5-0.3-0.7-0.6s-0.2-0.5-0.2-0.8
		c0-0.5,0.2-0.9,0.6-1.2s1-0.5,1.6-0.5c0.7,0,1.3,0.2,1.7,0.5s0.6,0.8,0.6,1.4H137c0-0.4-0.2-0.7-0.5-0.9s-0.7-0.4-1.2-0.4
		c-0.5,0-0.8,0.1-1.1,0.3s-0.4,0.5-0.4,0.8c0,0.3,0.1,0.6,0.3,0.7s0.7,0.3,1.3,0.5s1.1,0.3,1.4,0.5s0.5,0.4,0.7,0.6s0.2,0.5,0.2,0.8
		c0,0.5-0.2,1-0.6,1.3s-1,0.5-1.7,0.5c-0.7,0-1.3-0.2-1.8-0.5S133,36.6,133,36h0.7c0,0.4,0.2,0.7,0.5,1s0.7,0.3,1.3,0.3
		c0.5,0,0.9-0.1,1.2-0.3S137.1,36.5,137.1,36.2z"/>
	<path d="M143.2,36.2c0-0.3-0.1-0.6-0.4-0.8s-0.7-0.4-1.3-0.5s-1-0.3-1.3-0.4s-0.5-0.3-0.7-0.6s-0.2-0.5-0.2-0.8
		c0-0.5,0.2-0.9,0.6-1.2s1-0.5,1.6-0.5c0.7,0,1.3,0.2,1.7,0.5s0.6,0.8,0.6,1.4h-0.7c0-0.4-0.2-0.7-0.5-0.9s-0.7-0.4-1.2-0.4
		c-0.5,0-0.8,0.1-1.1,0.3S140,32.7,140,33c0,0.3,0.1,0.6,0.3,0.7s0.7,0.3,1.3,0.5s1.1,0.3,1.4,0.5s0.5,0.4,0.7,0.6s0.2,0.5,0.2,0.8
		c0,0.5-0.2,1-0.6,1.3s-1,0.5-1.7,0.5c-0.7,0-1.3-0.2-1.8-0.5S139,36.6,139,36h0.7c0,0.4,0.2,0.7,0.5,1s0.7,0.3,1.3,0.3
		c0.5,0,0.9-0.1,1.2-0.3S143.2,36.5,143.2,36.2z"/>
	<path d="M145.4,29.6c0-0.1,0-0.2,0.1-0.3c0.1-0.1,0.2-0.1,0.4-0.1s0.3,0,0.4,0.1c0.1,0.1,0.1,0.2,0.1,0.3s0,0.2-0.1,0.3
		s-0.2,0.1-0.4,0.1s-0.3,0-0.4-0.1S145.4,29.8,145.4,29.6z M146.2,37.8h-0.7v-6.3h0.7V37.8z"/>
	<path d="M147.7,34.5c0-0.6,0.1-1.2,0.4-1.6s0.6-0.9,1-1.1s0.9-0.4,1.5-0.4c0.8,0,1.5,0.3,2.1,0.9s0.8,1.4,0.8,2.4v0.1
		c0,0.6-0.1,1.2-0.4,1.7s-0.6,0.9-1,1.1s-0.9,0.4-1.5,0.4c-0.8,0-1.5-0.3-2-0.9s-0.8-1.4-0.8-2.4V34.5z M148.4,34.7
		c0,0.8,0.2,1.4,0.6,1.9s0.9,0.7,1.5,0.7c0.6,0,1.1-0.2,1.5-0.7s0.6-1.1,0.6-1.9v-0.1c0-0.5-0.1-0.9-0.3-1.3s-0.4-0.7-0.8-0.9
		s-0.7-0.3-1.1-0.3c-0.6,0-1.1,0.2-1.5,0.7s-0.6,1.1-0.6,1.9V34.7z"/>
	<path d="M155.5,31.5l0,1.1c0.2-0.4,0.5-0.7,0.9-0.9s0.7-0.3,1.2-0.3c0.7,0,1.2,0.2,1.5,0.6s0.5,1,0.5,1.7v4.2h-0.7v-4.2
		c0-0.6-0.1-1-0.4-1.3S158,32,157.4,32c-0.4,0-0.8,0.1-1.2,0.4s-0.6,0.6-0.7,1.1v4.3h-0.7v-6.3H155.5z"/>
	<path d="M165.4,37.8c-0.1-0.2-0.1-0.5-0.1-0.9c-0.2,0.3-0.6,0.6-0.9,0.7s-0.8,0.3-1.2,0.3c-0.6,0-1.1-0.2-1.5-0.5s-0.6-0.8-0.6-1.3
		c0-0.6,0.3-1.1,0.8-1.5s1.2-0.5,2.1-0.5h1.3v-0.7c0-0.5-0.1-0.8-0.4-1.1s-0.7-0.4-1.2-0.4c-0.5,0-0.9,0.1-1.2,0.4s-0.5,0.6-0.5,0.9
		l-0.7,0c0-0.5,0.2-0.9,0.7-1.3s1-0.6,1.7-0.6c0.7,0,1.3,0.2,1.7,0.5s0.6,0.8,0.6,1.5v3c0,0.6,0.1,1.1,0.2,1.4v0.1H165.4z
		 M163.2,37.3c0.5,0,0.9-0.1,1.3-0.3s0.6-0.5,0.8-0.9v-1.4H164c-0.7,0-1.2,0.1-1.6,0.4s-0.6,0.6-0.6,1c0,0.4,0.1,0.7,0.4,0.9
		S162.8,37.3,163.2,37.3z"/>
	<path d="M168.7,37.8h-0.7v-9h0.7V37.8z"/>
	<path d="M173,37.9c-0.5,0-1-0.1-1.5-0.4s-0.8-0.6-1-1.1s-0.4-1-0.4-1.6v-0.3c0-0.6,0.1-1.2,0.4-1.6s0.6-0.9,1-1.2s0.9-0.4,1.4-0.4
		c0.8,0,1.4,0.3,1.8,0.8s0.7,1.2,0.7,2.2v0.4h-4.5v0.1c0,0.7,0.2,1.3,0.6,1.8s0.9,0.7,1.6,0.7c0.4,0,0.7-0.1,1-0.2s0.5-0.4,0.8-0.7
		l0.4,0.3C174.7,37.5,174,37.9,173,37.9z M172.9,31.9c-0.5,0-1,0.2-1.3,0.6s-0.6,0.9-0.7,1.6h3.8V34c0-0.6-0.2-1.1-0.5-1.5
		S173.4,31.9,172.9,31.9z"/>
	<path d="M179.4,34.6c0-1,0.2-1.8,0.7-2.4s1-0.9,1.8-0.9c0.9,0,1.5,0.3,2,1v-3.6h0.7v9h-0.7l0-0.8c-0.4,0.6-1.1,1-2,1
		c-0.7,0-1.3-0.3-1.8-0.9S179.4,35.7,179.4,34.6L179.4,34.6z M180.1,34.7c0,0.8,0.2,1.4,0.5,1.9s0.8,0.7,1.4,0.7
		c0.9,0,1.5-0.4,1.8-1.1v-3c-0.4-0.8-1-1.2-1.8-1.2c-0.6,0-1,0.2-1.4,0.7S180.1,33.8,180.1,34.7z"/>
	<path d="M188.8,37.9c-0.5,0-1-0.1-1.5-0.4s-0.8-0.6-1-1.1s-0.4-1-0.4-1.6v-0.3c0-0.6,0.1-1.2,0.4-1.6s0.6-0.9,1-1.2
		s0.9-0.4,1.4-0.4c0.8,0,1.4,0.3,1.8,0.8s0.7,1.2,0.7,2.2v0.4h-4.5v0.1c0,0.7,0.2,1.3,0.6,1.8s0.9,0.7,1.6,0.7c0.4,0,0.7-0.1,1-0.2
		s0.5-0.4,0.8-0.7l0.4,0.3C190.5,37.5,189.8,37.9,188.8,37.9z M188.7,31.9c-0.5,0-1,0.2-1.3,0.6s-0.6,0.9-0.7,1.6h3.8V34
		c0-0.6-0.2-1.1-0.5-1.5S189.2,31.9,188.7,31.9z"/>
	<path d="M192.5,29.6c0-0.1,0-0.2,0.1-0.3c0.1-0.1,0.2-0.1,0.4-0.1s0.3,0,0.4,0.1c0.1,0.1,0.1,0.2,0.1,0.3s0,0.2-0.1,0.3
		s-0.2,0.1-0.4,0.1s-0.3,0-0.4-0.1S192.5,29.8,192.5,29.6z M193.3,37.8h-0.7v-6.3h0.7V37.8z"/>
	<path d="M204.5,36.8c-0.2,0.4-0.6,0.6-1.2,0.8s-1.1,0.3-1.8,0.3c-0.7,0-1.3-0.2-1.8-0.5s-0.9-0.8-1.2-1.4s-0.4-1.3-0.4-2V33
		c0-1.2,0.3-2.1,0.9-2.8s1.4-1,2.4-1c0.9,0,1.6,0.2,2.1,0.7s0.9,1.1,1,1.8h-0.7c-0.1-0.6-0.4-1.1-0.8-1.4s-0.9-0.5-1.6-0.5
		c-0.8,0-1.4,0.3-1.9,0.9s-0.7,1.4-0.7,2.4v1c0,0.6,0.1,1.2,0.3,1.7c0.2,0.5,0.5,0.9,0.9,1.2c0.4,0.3,0.9,0.4,1.4,0.4
		c0.6,0,1.2-0.1,1.6-0.3c0.3-0.1,0.5-0.3,0.6-0.5v-2.2h-2.3v-0.6h3V36.8z"/>
	<path d="M209.3,32.1c-0.1,0-0.3,0-0.5,0c-0.4,0-0.8,0.1-1.1,0.4s-0.5,0.6-0.6,1.1v4.4h-0.7v-6.3h0.7l0,1c0.4-0.8,1-1.1,1.8-1.1
		c0.2,0,0.3,0,0.5,0.1L209.3,32.1z"/>
	<path d="M210.3,29.6c0-0.1,0-0.2,0.1-0.3c0.1-0.1,0.2-0.1,0.4-0.1s0.3,0,0.4,0.1c0.1,0.1,0.1,0.2,0.1,0.3s0,0.2-0.1,0.3
		s-0.2,0.1-0.4,0.1s-0.3,0-0.4-0.1S210.3,29.8,210.3,29.6z M211.2,37.8h-0.7v-6.3h0.7V37.8z"/>
	<path d="M212.8,34.6c0-1,0.2-1.8,0.7-2.4s1-0.9,1.8-0.9c0.9,0,1.5,0.3,2,1l0-0.9h0.7v6.2c0,0.8-0.2,1.5-0.7,1.9s-1.1,0.7-1.9,0.7
		c-0.4,0-0.9-0.1-1.3-0.3s-0.7-0.5-0.9-0.8l0.4-0.4c0.5,0.6,1.1,0.9,1.8,0.9c0.6,0,1-0.2,1.4-0.5s0.5-0.8,0.5-1.4V37
		c-0.4,0.6-1.1,0.9-2,0.9c-0.7,0-1.3-0.3-1.8-0.9S212.8,35.7,212.8,34.6L212.8,34.6z M213.5,34.7c0,0.8,0.2,1.4,0.5,1.9
		s0.8,0.7,1.4,0.7c0.9,0,1.5-0.4,1.8-1.2v-2.9c-0.2-0.4-0.4-0.7-0.7-0.9s-0.7-0.3-1.1-0.3c-0.6,0-1,0.2-1.4,0.7
		S213.5,33.8,213.5,34.7z"/>
	<path d="M219.7,29.6c0-0.1,0-0.2,0.1-0.3c0.1-0.1,0.2-0.1,0.4-0.1s0.3,0,0.4,0.1c0.1,0.1,0.1,0.2,0.1,0.3s0,0.2-0.1,0.3
		s-0.2,0.1-0.4,0.1s-0.3,0-0.4-0.1S219.7,29.8,219.7,29.6z M220.5,37.8h-0.7v-6.3h0.7V37.8z"/>
	<path d="M222,34.5c0-0.6,0.1-1.2,0.4-1.6s0.6-0.9,1-1.1s0.9-0.4,1.5-0.4c0.8,0,1.5,0.3,2.1,0.9s0.8,1.4,0.8,2.4v0.1
		c0,0.6-0.1,1.2-0.4,1.7s-0.6,0.9-1,1.1s-0.9,0.4-1.5,0.4c-0.8,0-1.5-0.3-2-0.9s-0.8-1.4-0.8-2.4V34.5z M222.7,34.7
		c0,0.8,0.2,1.4,0.6,1.9s0.9,0.7,1.5,0.7c0.6,0,1.1-0.2,1.5-0.7s0.6-1.1,0.6-1.9v-0.1c0-0.5-0.1-0.9-0.3-1.3s-0.4-0.7-0.8-0.9
		s-0.7-0.3-1.1-0.3c-0.6,0-1.1,0.2-1.5,0.7s-0.6,1.1-0.6,1.9V34.7z"/>
	<path d="M229.8,31.5l0,1.1c0.2-0.4,0.5-0.7,0.9-0.9s0.7-0.3,1.2-0.3c0.7,0,1.2,0.2,1.5,0.6s0.5,1,0.5,1.7v4.2h-0.7v-4.2
		c0-0.6-0.1-1-0.4-1.3s-0.6-0.4-1.1-0.4c-0.4,0-0.8,0.1-1.2,0.4s-0.6,0.6-0.7,1.1v4.3h-0.7v-6.3H229.8z"/>
	<path d="M235.7,29.6c0-0.1,0-0.2,0.1-0.3c0.1-0.1,0.2-0.1,0.4-0.1s0.3,0,0.4,0.1c0.1,0.1,0.1,0.2,0.1,0.3s0,0.2-0.1,0.3
		s-0.2,0.1-0.4,0.1s-0.3,0-0.4-0.1S235.7,29.8,235.7,29.6z M236.5,37.8h-0.7v-6.3h0.7V37.8z"/>
	<path d="M6.4,43.7v5.8c0,0.6-0.1,1.1-0.4,1.5S5.5,51.7,5,52s-1,0.3-1.6,0.3c-0.9,0-1.6-0.2-2.2-0.7s-0.8-1.2-0.8-2v-5.9h0.7v5.8
		c0,0.7,0.2,1.3,0.6,1.7s1,0.6,1.7,0.6s1.3-0.2,1.7-0.6s0.6-1,0.6-1.7v-5.8H6.4z"/>
	<path d="M9,45.9l0,1.1c0.2-0.4,0.5-0.7,0.9-0.9s0.7-0.3,1.2-0.3c0.7,0,1.2,0.2,1.5,0.6s0.5,1,0.5,1.7v4.2h-0.7V48
		c0-0.6-0.1-1-0.4-1.3s-0.6-0.4-1.1-0.4c-0.4,0-0.8,0.1-1.2,0.4S9.1,47.4,9,47.9v4.3H8.3v-6.3H9z"/>
	<path d="M14.8,44c0-0.1,0-0.2,0.1-0.3c0.1-0.1,0.2-0.1,0.4-0.1s0.3,0,0.4,0.1c0.1,0.1,0.1,0.2,0.1,0.3s0,0.2-0.1,0.3
		s-0.2,0.1-0.4,0.1s-0.3,0-0.4-0.1S14.8,44.2,14.8,44z M15.7,52.2H15v-6.3h0.7V52.2z"/>
	<path d="M19.5,51.2l1.9-5.4h0.7l-2.4,6.3h-0.6l-2.4-6.3h0.7L19.5,51.2z"/>
	<path d="M25.7,52.3c-0.5,0-1-0.1-1.5-0.4s-0.8-0.6-1-1.1s-0.4-1-0.4-1.6V49c0-0.6,0.1-1.2,0.4-1.6s0.6-0.9,1-1.2s0.9-0.4,1.4-0.4
		c0.8,0,1.4,0.3,1.8,0.8s0.7,1.2,0.7,2.2v0.4h-4.5v0.1c0,0.7,0.2,1.3,0.6,1.8s0.9,0.7,1.6,0.7c0.4,0,0.7-0.1,1-0.2s0.5-0.4,0.8-0.7
		l0.4,0.3C27.4,51.9,26.7,52.3,25.7,52.3z M25.6,46.3c-0.5,0-1,0.2-1.3,0.6s-0.6,0.9-0.7,1.6h3.8v-0.1c0-0.6-0.2-1.1-0.5-1.5
		S26.1,46.3,25.6,46.3z"/>
	<path d="M32.4,46.5c-0.1,0-0.3,0-0.5,0c-0.4,0-0.8,0.1-1.1,0.4s-0.5,0.6-0.6,1.1v4.4h-0.7v-6.3h0.7l0,1c0.4-0.8,1-1.1,1.8-1.1
		c0.2,0,0.3,0,0.5,0.1L32.4,46.5z"/>
	<path d="M37.3,50.6c0-0.3-0.1-0.6-0.4-0.8s-0.7-0.4-1.3-0.5s-1-0.3-1.3-0.4s-0.5-0.3-0.7-0.6s-0.2-0.5-0.2-0.8
		c0-0.5,0.2-0.9,0.6-1.2s1-0.5,1.6-0.5c0.7,0,1.3,0.2,1.7,0.5s0.6,0.8,0.6,1.4h-0.7c0-0.4-0.2-0.7-0.5-0.9s-0.7-0.4-1.2-0.4
		c-0.5,0-0.8,0.1-1.1,0.3s-0.4,0.5-0.4,0.8c0,0.3,0.1,0.6,0.3,0.7s0.7,0.3,1.3,0.5s1.1,0.3,1.4,0.5s0.5,0.4,0.7,0.6s0.2,0.5,0.2,0.8
		c0,0.5-0.2,1-0.6,1.3s-1,0.5-1.7,0.5c-0.7,0-1.3-0.2-1.8-0.5s-0.7-0.8-0.7-1.4h0.7c0,0.4,0.2,0.7,0.5,1s0.7,0.3,1.3,0.3
		c0.5,0,0.9-0.1,1.2-0.3S37.3,50.9,37.3,50.6z"/>
	<path d="M39.5,44c0-0.1,0-0.2,0.1-0.3c0.1-0.1,0.2-0.1,0.4-0.1s0.3,0,0.4,0.1c0.1,0.1,0.1,0.2,0.1,0.3s0,0.2-0.1,0.3
		s-0.2,0.1-0.4,0.1s-0.3,0-0.4-0.1S39.5,44.2,39.5,44z M40.4,52.2h-0.7v-6.3h0.7V52.2z"/>
	<path d="M43.4,44.2v1.6h1.3v0.6h-1.3v4.2c0,0.4,0.1,0.6,0.2,0.8c0.1,0.2,0.3,0.3,0.6,0.3c0.1,0,0.3,0,0.6-0.1l0,0.6
		c-0.2,0.1-0.4,0.1-0.8,0.1c-0.5,0-0.8-0.1-1-0.4s-0.3-0.7-0.3-1.2v-4.2h-1.2v-0.6h1.2v-1.6H43.4z"/>
	<path d="M48.1,51.2l1.9-5.3h0.8L48,53.3l-0.1,0.3c-0.3,0.8-0.9,1.2-1.6,1.2c-0.2,0-0.3,0-0.5-0.1l0-0.6l0.4,0
		c0.3,0,0.6-0.1,0.8-0.3s0.4-0.5,0.5-0.9l0.3-0.9l-2.4-6.3h0.8L48.1,51.2z"/>
	<path d="M54.4,48.9c0-0.6,0.1-1.2,0.4-1.6s0.6-0.9,1-1.1s0.9-0.4,1.5-0.4c0.8,0,1.5,0.3,2.1,0.9S60,48,60,49v0.1
		c0,0.6-0.1,1.2-0.4,1.7s-0.6,0.9-1,1.1s-0.9,0.4-1.5,0.4c-0.8,0-1.5-0.3-2-0.9s-0.8-1.4-0.8-2.4V48.9z M55.1,49.1
		c0,0.8,0.2,1.4,0.6,1.9s0.9,0.7,1.5,0.7c0.6,0,1.1-0.2,1.5-0.7s0.6-1.1,0.6-1.9v-0.1c0-0.5-0.1-0.9-0.3-1.3s-0.4-0.7-0.8-0.9
		s-0.7-0.3-1.1-0.3c-0.6,0-1.1,0.2-1.5,0.7s-0.6,1.1-0.6,1.9V49.1z"/>
	<path d="M62,52.2v-5.8h-1v-0.6h1v-0.8c0-0.6,0.2-1.1,0.5-1.5s0.8-0.5,1.4-0.5c0.3,0,0.5,0,0.7,0.1l-0.1,0.6c-0.2,0-0.4-0.1-0.6-0.1
		c-0.4,0-0.7,0.1-0.9,0.4s-0.3,0.6-0.3,1v0.8h1.5v0.6h-1.5v5.8H62z"/>
	<path d="M73.1,49.8h-3.9l-0.9,2.4h-0.8l3.2-8.5h0.7l3.2,8.5H74L73.1,49.8z M69.5,49.2h3.4l-1.7-4.6L69.5,49.2z"/>
	<path d="M80.9,49.1c0,1-0.2,1.8-0.7,2.4s-1,0.9-1.8,0.9c-0.9,0-1.5-0.3-2-0.9v3.2h-0.7v-8.8h0.7l0,0.9c0.5-0.7,1.1-1,2-1
		c0.8,0,1.4,0.3,1.8,0.9S80.9,48,80.9,49.1L80.9,49.1z M80.2,49c0-0.8-0.2-1.4-0.5-1.9s-0.8-0.7-1.4-0.7c-0.4,0-0.8,0.1-1.1,0.3
		s-0.5,0.5-0.7,0.9v3c0.2,0.4,0.4,0.6,0.7,0.8s0.7,0.3,1.1,0.3c0.6,0,1-0.2,1.4-0.7S80.2,49.9,80.2,49z"/>
	<path d="M87.6,49.1c0,1-0.2,1.8-0.7,2.4s-1,0.9-1.8,0.9c-0.9,0-1.5-0.3-2-0.9v3.2h-0.7v-8.8h0.7l0,0.9c0.5-0.7,1.1-1,2-1
		c0.8,0,1.4,0.3,1.8,0.9S87.6,48,87.6,49.1L87.6,49.1z M86.9,49c0-0.8-0.2-1.4-0.5-1.9s-0.8-0.7-1.4-0.7c-0.4,0-0.8,0.1-1.1,0.3
		s-0.5,0.5-0.7,0.9v3c0.2,0.4,0.4,0.6,0.7,0.8s0.7,0.3,1.1,0.3c0.6,0,1-0.2,1.4-0.7S86.9,49.9,86.9,49z"/>
	<path d="M89.9,52.2h-0.7v-9h0.7V52.2z"/>
	<path d="M91.8,44c0-0.1,0-0.2,0.1-0.3c0.1-0.1,0.2-0.1,0.4-0.1s0.3,0,0.4,0.1c0.1,0.1,0.1,0.2,0.1,0.3s0,0.2-0.1,0.3
		s-0.2,0.1-0.4,0.1s-0.3,0-0.4-0.1S91.8,44.2,91.8,44z M92.6,52.2h-0.7v-6.3h0.7V52.2z"/>
	<path d="M97,52.3c-0.5,0-1-0.1-1.5-0.4s-0.8-0.6-1-1.1s-0.4-1-0.4-1.6V49c0-0.6,0.1-1.2,0.4-1.6s0.6-0.9,1-1.2s0.9-0.4,1.4-0.4
		c0.8,0,1.4,0.3,1.8,0.8s0.7,1.2,0.7,2.2v0.4h-4.5v0.1c0,0.7,0.2,1.3,0.6,1.8s0.9,0.7,1.6,0.7c0.4,0,0.7-0.1,1-0.2s0.5-0.4,0.8-0.7
		l0.4,0.3C98.7,51.9,98,52.3,97,52.3z M96.8,46.3c-0.5,0-1,0.2-1.3,0.6s-0.6,0.9-0.7,1.6h3.8v-0.1c0-0.6-0.2-1.1-0.5-1.5
		S97.4,46.3,96.8,46.3z"/>
	<path d="M100.4,49c0-1,0.2-1.8,0.7-2.4s1-0.9,1.8-0.9c0.9,0,1.5,0.3,2,1v-3.6h0.7v9h-0.7l0-0.8c-0.4,0.6-1.1,1-2,1
		c-0.7,0-1.3-0.3-1.8-0.9S100.4,50.1,100.4,49L100.4,49z M101.2,49.1c0,0.8,0.2,1.4,0.5,1.9s0.8,0.7,1.4,0.7c0.9,0,1.5-0.4,1.8-1.1
		v-3c-0.4-0.8-1-1.2-1.8-1.2c-0.6,0-1,0.2-1.4,0.7S101.2,48.2,101.2,49.1z"/>
	<path d="M115.3,50.1c0-0.5-0.2-0.8-0.5-1.1s-0.9-0.5-1.8-0.8s-1.5-0.5-1.9-0.8c-0.6-0.4-0.9-1-0.9-1.6c0-0.7,0.3-1.2,0.8-1.6
		s1.2-0.6,2.1-0.6c0.6,0,1.1,0.1,1.5,0.3s0.8,0.5,1,0.9s0.4,0.8,0.4,1.3h-0.7c0-0.6-0.2-1.1-0.6-1.4c-0.4-0.4-0.9-0.5-1.6-0.5
		c-0.7,0-1.2,0.1-1.6,0.4c-0.4,0.3-0.6,0.7-0.6,1.1c0,0.4,0.2,0.8,0.5,1.1s0.9,0.5,1.7,0.7s1.3,0.4,1.7,0.7s0.7,0.5,0.9,0.8
		s0.3,0.7,0.3,1.1c0,0.7-0.3,1.2-0.8,1.6s-1.2,0.6-2.1,0.6c-0.6,0-1.2-0.1-1.7-0.3s-0.9-0.5-1.1-0.9s-0.4-0.8-0.4-1.3h0.7
		c0,0.6,0.2,1.1,0.7,1.4s1,0.5,1.8,0.5c0.7,0,1.2-0.1,1.6-0.4S115.3,50.6,115.3,50.1z"/>
	<path d="M119.8,51.7c0.5,0,0.9-0.1,1.2-0.4s0.5-0.6,0.5-1.1h0.7c0,0.4-0.1,0.7-0.4,1.1s-0.5,0.6-0.9,0.7s-0.8,0.3-1.2,0.3
		c-0.8,0-1.5-0.3-2-0.9s-0.7-1.4-0.7-2.3v-0.2c0-0.6,0.1-1.2,0.3-1.7s0.5-0.9,0.9-1.1s0.9-0.4,1.4-0.4c0.7,0,1.3,0.2,1.7,0.6
		s0.7,1,0.7,1.6h-0.7c0-0.5-0.2-0.9-0.5-1.2s-0.7-0.5-1.2-0.5c-0.6,0-1.1,0.2-1.5,0.7s-0.5,1.1-0.5,1.9v0.2c0,0.8,0.2,1.4,0.5,1.9
		S119.1,51.7,119.8,51.7z"/>
	<path d="M123.6,44c0-0.1,0-0.2,0.1-0.3c0.1-0.1,0.2-0.1,0.4-0.1s0.3,0,0.4,0.1c0.1,0.1,0.1,0.2,0.1,0.3s0,0.2-0.1,0.3
		s-0.2,0.1-0.4,0.1s-0.3,0-0.4-0.1S123.6,44.2,123.6,44z M124.4,52.2h-0.7v-6.3h0.7V52.2z"/>
	<path d="M128.7,52.3c-0.5,0-1-0.1-1.5-0.4s-0.8-0.6-1-1.1s-0.4-1-0.4-1.6V49c0-0.6,0.1-1.2,0.4-1.6s0.6-0.9,1-1.2s0.9-0.4,1.4-0.4
		c0.8,0,1.4,0.3,1.8,0.8s0.7,1.2,0.7,2.2v0.4h-4.5v0.1c0,0.7,0.2,1.3,0.6,1.8s0.9,0.7,1.6,0.7c0.4,0,0.7-0.1,1-0.2s0.5-0.4,0.8-0.7
		l0.4,0.3C130.5,51.9,129.7,52.3,128.7,52.3z M128.6,46.3c-0.5,0-1,0.2-1.3,0.6s-0.6,0.9-0.7,1.6h3.8v-0.1c0-0.6-0.2-1.1-0.5-1.5
		S129.1,46.3,128.6,46.3z"/>
	<path d="M133.2,45.9l0,1.1c0.2-0.4,0.5-0.7,0.9-0.9s0.7-0.3,1.2-0.3c0.7,0,1.2,0.2,1.5,0.6s0.5,1,0.5,1.7v4.2h-0.7V48
		c0-0.6-0.1-1-0.4-1.3s-0.6-0.4-1.1-0.4c-0.4,0-0.8,0.1-1.2,0.4s-0.6,0.6-0.7,1.1v4.3h-0.7v-6.3H133.2z"/>
	<path d="M141.4,51.7c0.5,0,0.9-0.1,1.2-0.4s0.5-0.6,0.5-1.1h0.7c0,0.4-0.1,0.7-0.4,1.1s-0.5,0.6-0.9,0.7s-0.8,0.3-1.2,0.3
		c-0.8,0-1.5-0.3-2-0.9s-0.7-1.4-0.7-2.3v-0.2c0-0.6,0.1-1.2,0.3-1.7s0.5-0.9,0.9-1.1s0.9-0.4,1.4-0.4c0.7,0,1.3,0.2,1.7,0.6
		s0.7,1,0.7,1.6h-0.7c0-0.5-0.2-0.9-0.5-1.2s-0.7-0.5-1.2-0.5c-0.6,0-1.1,0.2-1.5,0.7s-0.5,1.1-0.5,1.9v0.2c0,0.8,0.2,1.4,0.5,1.9
		S140.8,51.7,141.4,51.7z"/>
	<path d="M147.7,52.3c-0.5,0-1-0.1-1.5-0.4s-0.8-0.6-1-1.1s-0.4-1-0.4-1.6V49c0-0.6,0.1-1.2,0.4-1.6s0.6-0.9,1-1.2s0.9-0.4,1.4-0.4
		c0.8,0,1.4,0.3,1.8,0.8s0.7,1.2,0.7,2.2v0.4h-4.5v0.1c0,0.7,0.2,1.3,0.6,1.8s0.9,0.7,1.6,0.7c0.4,0,0.7-0.1,1-0.2s0.5-0.4,0.8-0.7
		l0.4,0.3C149.4,51.9,148.7,52.3,147.7,52.3z M147.6,46.3c-0.5,0-1,0.2-1.3,0.6s-0.6,0.9-0.7,1.6h3.8v-0.1c0-0.6-0.2-1.1-0.5-1.5
		S148.1,46.3,147.6,46.3z"/>
	<path d="M155.3,50.6c0-0.3-0.1-0.6-0.4-0.8s-0.7-0.4-1.3-0.5s-1-0.3-1.3-0.4s-0.5-0.3-0.7-0.6s-0.2-0.5-0.2-0.8
		c0-0.5,0.2-0.9,0.6-1.2s1-0.5,1.6-0.5c0.7,0,1.3,0.2,1.7,0.5s0.6,0.8,0.6,1.4h-0.7c0-0.4-0.2-0.7-0.5-0.9s-0.7-0.4-1.2-0.4
		c-0.5,0-0.8,0.1-1.1,0.3s-0.4,0.5-0.4,0.8c0,0.3,0.1,0.6,0.3,0.7s0.7,0.3,1.3,0.5s1.1,0.3,1.4,0.5s0.5,0.4,0.7,0.6s0.2,0.5,0.2,0.8
		c0,0.5-0.2,1-0.6,1.3s-1,0.5-1.7,0.5c-0.7,0-1.3-0.2-1.8-0.5s-0.7-0.8-0.7-1.4h0.7c0,0.4,0.2,0.7,0.5,1s0.7,0.3,1.3,0.3
		c0.5,0,0.9-0.1,1.2-0.3S155.3,50.9,155.3,50.6z"/>
	<path d="M160.1,48.9c0-0.6,0.1-1.2,0.4-1.6s0.6-0.9,1-1.1s0.9-0.4,1.5-0.4c0.8,0,1.5,0.3,2.1,0.9s0.8,1.4,0.8,2.4v0.1
		c0,0.6-0.1,1.2-0.4,1.7s-0.6,0.9-1,1.1s-0.9,0.4-1.5,0.4c-0.8,0-1.5-0.3-2-0.9s-0.8-1.4-0.8-2.4V48.9z M160.8,49.1
		c0,0.8,0.2,1.4,0.6,1.9s0.9,0.7,1.5,0.7c0.6,0,1.1-0.2,1.5-0.7s0.6-1.1,0.6-1.9v-0.1c0-0.5-0.1-0.9-0.3-1.3s-0.4-0.7-0.8-0.9
		s-0.7-0.3-1.1-0.3c-0.6,0-1.1,0.2-1.5,0.7s-0.6,1.1-0.6,1.9V49.1z"/>
	<path d="M167.7,52.2v-5.8h-1v-0.6h1v-0.8c0-0.6,0.2-1.1,0.5-1.5s0.8-0.5,1.4-0.5c0.3,0,0.5,0,0.7,0.1l-0.1,0.6
		c-0.2,0-0.4-0.1-0.6-0.1c-0.4,0-0.7,0.1-0.9,0.4s-0.3,0.6-0.3,1v0.8h1.5v0.6h-1.5v5.8H167.7z"/>
	<path d="M175.2,44.2v1.6h1.3v0.6h-1.3v4.2c0,0.4,0.1,0.6,0.2,0.8c0.1,0.2,0.3,0.3,0.6,0.3c0.1,0,0.3,0,0.6-0.1l0,0.6
		c-0.2,0.1-0.4,0.1-0.8,0.1c-0.5,0-0.8-0.1-1-0.4s-0.3-0.7-0.3-1.2v-4.2h-1.2v-0.6h1.2v-1.6H175.2z"/>
	<path d="M178.6,46.9c0.2-0.4,0.5-0.7,0.9-0.9s0.8-0.3,1.2-0.3c0.7,0,1.2,0.2,1.5,0.6s0.5,1,0.5,1.7v4.2H182V48c0-0.6-0.1-1-0.4-1.3
		s-0.6-0.4-1.1-0.4c-0.4,0-0.8,0.1-1.2,0.4s-0.6,0.6-0.7,1.1v4.3h-0.7v-9h0.7V46.9z"/>
	<path d="M187,52.3c-0.5,0-1-0.1-1.5-0.4s-0.8-0.6-1-1.1s-0.4-1-0.4-1.6V49c0-0.6,0.1-1.2,0.4-1.6s0.6-0.9,1-1.2s0.9-0.4,1.4-0.4
		c0.8,0,1.4,0.3,1.8,0.8s0.7,1.2,0.7,2.2v0.4h-4.5v0.1c0,0.7,0.2,1.3,0.6,1.8s0.9,0.7,1.6,0.7c0.4,0,0.7-0.1,1-0.2s0.5-0.4,0.8-0.7
		l0.4,0.3C188.7,51.9,187.9,52.3,187,52.3z M186.8,46.3c-0.5,0-1,0.2-1.3,0.6s-0.6,0.9-0.7,1.6h3.8v-0.1c0-0.6-0.2-1.1-0.5-1.5
		S187.4,46.3,186.8,46.3z"/>
	<path d="M199.9,51.2c-0.2,0.4-0.6,0.6-1.2,0.8s-1.1,0.3-1.8,0.3c-0.7,0-1.3-0.2-1.8-0.5s-0.9-0.8-1.2-1.4s-0.4-1.3-0.4-2v-1.1
		c0-1.2,0.3-2.1,0.9-2.8s1.4-1,2.4-1c0.9,0,1.6,0.2,2.1,0.7s0.9,1.1,1,1.8h-0.7c-0.1-0.6-0.4-1.1-0.8-1.4s-0.9-0.5-1.6-0.5
		c-0.8,0-1.4,0.3-1.9,0.9s-0.7,1.4-0.7,2.4v1c0,0.6,0.1,1.2,0.3,1.7c0.2,0.5,0.5,0.9,0.9,1.2c0.4,0.3,0.9,0.4,1.4,0.4
		c0.6,0,1.2-0.1,1.6-0.3c0.3-0.1,0.5-0.3,0.6-0.5v-2.2h-2.3v-0.6h3V51.2z"/>
	<path d="M204.8,46.5c-0.1,0-0.3,0-0.5,0c-0.4,0-0.8,0.1-1.1,0.4s-0.5,0.6-0.6,1.1v4.4h-0.7v-6.3h0.7l0,1c0.4-0.8,1-1.1,1.8-1.1
		c0.2,0,0.3,0,0.5,0.1L204.8,46.5z"/>
	<path d="M205.8,44c0-0.1,0-0.2,0.1-0.3c0.1-0.1,0.2-0.1,0.4-0.1s0.3,0,0.4,0.1c0.1,0.1,0.1,0.2,0.1,0.3s0,0.2-0.1,0.3
		s-0.2,0.1-0.4,0.1s-0.3,0-0.4-0.1S205.8,44.2,205.8,44z M206.6,52.2h-0.7v-6.3h0.7V52.2z"/>
	<path d="M212.3,50.6c0-0.3-0.1-0.6-0.4-0.8s-0.7-0.4-1.3-0.5s-1-0.3-1.3-0.4s-0.5-0.3-0.7-0.6s-0.2-0.5-0.2-0.8
		c0-0.5,0.2-0.9,0.6-1.2s1-0.5,1.6-0.5c0.7,0,1.3,0.2,1.7,0.5s0.6,0.8,0.6,1.4h-0.7c0-0.4-0.2-0.7-0.5-0.9s-0.7-0.4-1.2-0.4
		c-0.5,0-0.8,0.1-1.1,0.3s-0.4,0.5-0.4,0.8c0,0.3,0.1,0.6,0.3,0.7s0.7,0.3,1.3,0.5s1.1,0.3,1.4,0.5s0.5,0.4,0.7,0.6s0.2,0.5,0.2,0.8
		c0,0.5-0.2,1-0.6,1.3s-1,0.5-1.7,0.5c-0.7,0-1.3-0.2-1.8-0.5s-0.7-0.8-0.7-1.4h0.7c0,0.4,0.2,0.7,0.5,1s0.7,0.3,1.3,0.3
		c0.5,0,0.9-0.1,1.2-0.3S212.3,50.9,212.3,50.6z"/>
	<path d="M214.2,48.9c0-0.6,0.1-1.2,0.4-1.6s0.6-0.9,1-1.1s0.9-0.4,1.5-0.4c0.8,0,1.5,0.3,2.1,0.9s0.8,1.4,0.8,2.4v0.1
		c0,0.6-0.1,1.2-0.4,1.7s-0.6,0.9-1,1.1s-0.9,0.4-1.5,0.4c-0.8,0-1.5-0.3-2-0.9s-0.8-1.4-0.8-2.4V48.9z M214.9,49.1
		c0,0.8,0.2,1.4,0.6,1.9s0.9,0.7,1.5,0.7c0.6,0,1.1-0.2,1.5-0.7s0.6-1.1,0.6-1.9v-0.1c0-0.5-0.1-0.9-0.3-1.3s-0.4-0.7-0.8-0.9
		s-0.7-0.3-1.1-0.3c-0.6,0-1.1,0.2-1.5,0.7s-0.6,1.1-0.6,1.9V49.1z"/>
	<path d="M222,45.9l0,1.1c0.2-0.4,0.5-0.7,0.9-0.9s0.7-0.3,1.2-0.3c0.7,0,1.2,0.2,1.5,0.6s0.5,1,0.5,1.7v4.2h-0.7V48
		c0-0.6-0.1-1-0.4-1.3s-0.6-0.4-1.1-0.4c-0.4,0-0.8,0.1-1.2,0.4s-0.6,0.6-0.7,1.1v4.3h-0.7v-6.3H222z"/>
	<path d="M231.7,50.6c0-0.3-0.1-0.6-0.4-0.8s-0.7-0.4-1.3-0.5s-1-0.3-1.3-0.4s-0.5-0.3-0.7-0.6s-0.2-0.5-0.2-0.8
		c0-0.5,0.2-0.9,0.6-1.2s1-0.5,1.6-0.5c0.7,0,1.3,0.2,1.7,0.5s0.6,0.8,0.6,1.4h-0.7c0-0.4-0.2-0.7-0.5-0.9s-0.7-0.4-1.2-0.4
		c-0.5,0-0.8,0.1-1.1,0.3s-0.4,0.5-0.4,0.8c0,0.3,0.1,0.6,0.3,0.7s0.7,0.3,1.3,0.5s1.1,0.3,1.4,0.5s0.5,0.4,0.7,0.6s0.2,0.5,0.2,0.8
		c0,0.5-0.2,1-0.6,1.3s-1,0.5-1.7,0.5c-0.7,0-1.3-0.2-1.8-0.5s-0.7-0.8-0.7-1.4h0.7c0,0.4,0.2,0.7,0.5,1s0.7,0.3,1.3,0.3
		c0.5,0,0.9-0.1,1.2-0.3S231.7,50.9,231.7,50.6z"/>
</g>
</svg>
