<svg id="Ebene_1" data-name="Ebene 1" xmlns="http://www.w3.org/2000/svg" width="152" height="195" viewBox="0 0 152 195"><defs><style>.cls-1{fill:#f6f6f6;}.cls-2{fill:none;}.cls-3{fill:#fff;}</style></defs><title>bg-pattern-web_dbm</title><rect class="cls-1" width="152" height="195"/><path class="cls-2" d="M4.56449,6.5015A13.72944,13.72944,0,0,1,6.20616,0H0V16.69654l6.0658-3.99872A13.68384,13.68384,0,0,1,4.56449,6.5015Z"/><path class="cls-2" d="M7.82485,6.5015a10.51039,10.51039,0,0,0,1.67792,5.66607,10.65586,10.65586,0,0,0,12.89029,4.0506,10.508,10.508,0,0,0,6.473-9.71667,5.41467,5.41467,0,0,0-.06365-.67642l-.05569-.42178A10.50892,10.50892,0,0,0,26.57233,0H10.0868A10.49768,10.49768,0,0,0,7.82485,6.5015Z"/><path class="cls-2" d="M126.29487,42.53917a10.7228,10.7228,0,0,1-2.92368,7.375l23.93728,34.3144a7.62194,7.62194,0,0,1,2.6836-.50689A7.49248,7.49248,0,0,1,152,83.9974V20.6003L125.34764,38.17013A10.62373,10.62373,0,0,1,126.29487,42.53917Z"/><path class="cls-2" d="M145.9405,89.61857l-.004.004a4.42855,4.42855,0,0,0-.38968,1.8104,4.25776,4.25776,0,0,0,.52087,1.92982,4.39471,4.39471,0,0,0,3.06154,2.43114A4.51056,4.51056,0,0,0,152,95.34662V87.49805a4.351,4.351,0,0,0-2.00793-.51362A4.44878,4.44878,0,0,0,145.9405,89.61857Z"/><path class="cls-2" d="M34.0731,48.46422,22.10462,19.75711a13.64072,13.64072,0,0,1-14.24-4.344L0,20.59767V83.99875a7.75055,7.75055,0,0,1,1.83143.77577Z"/><path class="cls-2" d="M145.5389,144.99408c0,.01193-.09146.33025-.09543.33821a6.83389,6.83389,0,0,0-.46915,2.42722,6.97552,6.97552,0,0,0,.72366,3.04393c-.004-.01193-.004-.01988,0-.01988a.86422.86422,0,0,1,.20676.2944,6.96,6.96,0,0,0,3.11717,3.02006A7.52666,7.52666,0,0,0,152,154.79585V140.72862A7.02786,7.02786,0,0,0,145.5389,144.99408Z"/><path class="cls-2" d="M123.57612,35.43682,152,16.69911V0H134.70179L121.45466,33.59026A10.69844,10.69844,0,0,1,123.57612,35.43682Z"/><path class="cls-2" d="M32.12643,6.5015a13.7465,13.7465,0,0,1-7.015,12.00042l11.36386,27.257L69.54639,8.51453a13.13407,13.13407,0,0,1-3.071-7.14592A10.64883,10.64883,0,0,1,66.34081,0H30.42546a13.78682,13.78682,0,0,1,1.55779,5.04919A10.83641,10.83641,0,0,1,32.12643,6.5015Z"/><path class="cls-2" d="M69.66022.60067l.05166.42178a9.84633,9.84633,0,0,0,3.14108,6.251,9.91041,9.91041,0,0,0,13.03347.23873v-.004A9.87442,9.87442,0,0,0,89.424,0H69.60251A4.74617,4.74617,0,0,0,69.66022.60067Z"/><path class="cls-2" d="M109.95441,33.41216a10.51976,10.51976,0,0,1,8.53817-1.18721L131.2013,0H92.68444a13.06384,13.06384,0,0,1-3.51853,8.86277Z"/><path class="cls-2" d="M45.5058,59.6329a12.01,12.01,0,0,1,10.23389,5.75062L104.895,43.7861a9.36722,9.36722,0,0,1-.08663-1.24693,10.64318,10.64318,0,0,1,2.67211-7.00966L86.6829,10.96922a12.82918,12.82918,0,0,1-7.17009,2.19309,13.01748,13.01748,0,0,1-7.5619-2.45078l-34.084,38.38512,4.56541,10.95044A11.90852,11.90852,0,0,1,45.5058,59.6329Z"/><path class="cls-2" d="M54.265,71.65743a8.77019,8.77019,0,0,0-8.75918-8.76176,8.60941,8.60941,0,0,0-3.36374.67641l-.6322-1.50407.62823,1.50407A8.7619,8.7619,0,1,0,48.878,79.74791l-.00049-.00122A8.74892,8.74892,0,0,0,54.265,71.65743Z"/><path class="cls-2" d="M111.70282,48.92547a7.45127,7.45127,0,0,0,11.3317-6.3863,7.49419,7.49419,0,0,0-4.306-6.75234,7.31961,7.31961,0,0,0-7.9879,1.07036,7.44278,7.44278,0,0,0,.96221,12.06828Z"/><path class="cls-2" d="M57.05618,68.3659a11.97,11.97,0,0,1-5.46447,13.65494l10.59287,25.40978a16.60025,16.60025,0,0,1,11.7926.86271l34.71594-57.53654a10.60029,10.60029,0,0,1-2.89861-3.8052Z"/><path class="cls-2" d="M5.579,90.266l51.53161,19.67585a16.82481,16.82481,0,0,1,2.05537-1.28449l-10.5842-25.389a11.88058,11.88058,0,0,1-3.076.4175A12.02252,12.02252,0,0,1,39.42337,61.297l-3.9587-9.495L4.22941,86.97887a7.62751,7.62751,0,0,1,1.20981,2.58C5.50164,89.80438,5.53967,90.03466,5.579,90.266Z"/><path class="cls-2" d="M150.36982,137.59879V99.12674c-.12587.00648-.25132.01749-.37775.01749a7.71164,7.71164,0,0,1-1.495-.15117,7.49939,7.49939,0,0,1-4.5055-2.84411L82.34791,116.82132a16.64676,16.64676,0,0,1,.70195,11.55992l59.9161,14.47653A10.26758,10.26758,0,0,1,150.36982,137.59879Z"/><path class="cls-2" d="M141.89254,145.95015l-60.091-14.51881a16.68151,16.68151,0,0,1-10.35494,8.304L78.853,181.85751c.21941-.01474.43663-.03787.65977-.03787a13.02487,13.02487,0,0,1,10.88394,5.822l51.9897-36.32731a9.99421,9.99421,0,0,1-.67249-3.55479A9.42469,9.42469,0,0,1,141.89254,145.95015Z"/><path class="cls-2" d="M52.24121,131.58491l-.004-.004a16.56039,16.56039,0,0,1,2.16212-19.18311L5.34605,93.66825a7.77444,7.77444,0,0,1-2.3322,3.57008,7.88433,7.88433,0,0,1-1.38367.9554v39.41834a10.28861,10.28861,0,0,1,7.36761,5.24533,10.1378,10.1378,0,0,1,1.28825,4.90211,10.286,10.286,0,0,1-4.91144,8.75381L14.73266,188.243a13.71564,13.71564,0,0,1,9.45227.82466l32.54821-52.20513A17.02923,17.02923,0,0,1,52.24121,131.58491Z"/><path class="cls-2" d="M79.40943,128.89907a13.40877,13.40877,0,0,0,1.09738-5.33582,13.55828,13.55828,0,1,0-27.11656,0A13.38448,13.38448,0,0,0,55.1,130.02119a13.43878,13.43878,0,0,0,14.19443,6.8717A13.47846,13.47846,0,0,0,79.40943,128.89907Z"/><path class="cls-2" d="M115.55166,53.29041a10.5541,10.5541,0,0,1-4.07186-.83922L76.79,109.94454a16.95011,16.95011,0,0,1,3.9304,3.98819l61.8138-20.72939a6.71957,6.71957,0,0,1-.24772-1.77039,7.641,7.641,0,0,1,2.2823-5.4394l-23.76689-34.0701A10.73506,10.73506,0,0,1,115.55166,53.29041Z"/><path class="cls-2" d="M75.65162,182.44124l-7.40631-42.12137c-.42814.042-.85883.07452-1.29675.07452a16.60612,16.60612,0,0,1-7.45345-1.79639L26.9507,190.79706A13.59793,13.59793,0,0,1,30.43237,195H66.34026A13.11767,13.11767,0,0,1,75.65162,182.44124Z"/><path class="cls-2" d="M.8787,94.77531A4.37178,4.37178,0,0,0,2.43337,91.433a4.45161,4.45161,0,0,0-.15112-1.07831A4.41126,4.41126,0,0,0,.97413,88.16222,4.06671,4.06671,0,0,0,0,87.50741v7.83835A4.32174,4.32174,0,0,0,.8787,94.77531Z"/><path class="cls-2" d="M23.896,192.61065A10.47048,10.47048,0,0,0,10.10159,195H26.55968A10.42537,10.42537,0,0,0,23.896,192.61065Z"/><path class="cls-2" d="M2.78723,154.20148a7.04041,7.04041,0,0,0,4.23845-6.442,6.91624,6.91624,0,0,0-.88664-3.33839A7.0069,7.0069,0,0,0,0,140.72862v14.06882A6.74841,6.74841,0,0,0,2.78723,154.20148Z"/><path class="cls-2" d="M11.69521,189.46357,2.34552,157.76239A9.99773,9.99773,0,0,1,0,158.05312V195H6.22023A13.81746,13.81746,0,0,1,11.69521,189.46357Z"/><path class="cls-2" d="M134.70888,195H152V158.05312a9.68218,9.68218,0,0,1-2.57435-.3699Z"/><path class="cls-2" d="M144.03974,154.13314,91.88106,190.57853A12.79071,12.79071,0,0,1,92.6853,195h38.52315l15.24333-38.65193A10.046,10.046,0,0,1,144.03974,154.13314Z"/><path class="cls-2" d="M88.40325,190.70866A9.89175,9.89175,0,0,0,69.60062,195H89.42494A9.77775,9.77775,0,0,0,88.40325,190.70866Z"/><path class="cls-3" d="M149.02191,154.098a6.96,6.96,0,0,1-3.11717-3.02006.86422.86422,0,0,0-.20676-.2944c-.004,0-.004.00795,0,.01988a6.97552,6.97552,0,0,1-.72366-3.04393,6.83389,6.83389,0,0,1,.46915-2.42722c.004-.008.09543-.32628.09543-.33821A7.02786,7.02786,0,0,1,152,140.72862v-45.382a4.51056,4.51056,0,0,1-2.87074.44729,4.39471,4.39471,0,0,1-3.06154-2.43114,4.25776,4.25776,0,0,1-.52087-1.92982,4.42855,4.42855,0,0,1,.38968-1.8104l.004-.004a4.44878,4.44878,0,0,1,4.05157-2.63414A4.351,4.351,0,0,1,152,87.49805V83.9974a7.49248,7.49248,0,0,0-2.00793-.27574,7.62194,7.62194,0,0,0-2.6836.50689l-23.93728-34.3144a10.7228,10.7228,0,0,0,2.92368-7.375,10.62373,10.62373,0,0,0-.94723-4.369L152,20.6003V16.69911L123.57612,35.43682a10.69844,10.69844,0,0,0-2.12146-1.84656L134.70179,0H131.2013L118.49258,32.225a10.51976,10.51976,0,0,0-8.53817,1.18721L89.16591,8.86277A13.06384,13.06384,0,0,0,92.68444,0H89.424a9.87442,9.87442,0,0,1-3.53754,7.50817v.004A9.91041,9.91041,0,0,1,72.853,7.27341a9.84633,9.84633,0,0,1-3.14108-6.251L69.66022.60067A4.74617,4.74617,0,0,1,69.60251,0h-3.2617a10.64883,10.64883,0,0,0,.13456,1.36861,13.13407,13.13407,0,0,0,3.071,7.14592L36.4753,45.75887l-11.36386-27.257a13.7465,13.7465,0,0,0,7.015-12.00042,10.83641,10.83641,0,0,0-.14318-1.45231A13.78682,13.78682,0,0,0,30.42546,0H26.57233a10.50892,10.50892,0,0,1,2.17441,5.4033l.05569.42178a5.41467,5.41467,0,0,1,.06365.67642,10.508,10.508,0,0,1-6.473,9.71667,10.65586,10.65586,0,0,1-12.89029-4.0506A10.4429,10.4429,0,0,1,10.0868,0H6.20616A13.61783,13.61783,0,0,0,6.0658,12.69782L0,16.69654v3.90113l7.86459-5.18452a13.64072,13.64072,0,0,0,14.24,4.344L34.0731,48.46422,1.83143,84.77452A7.75055,7.75055,0,0,0,0,83.99875v3.50866a4.06671,4.06671,0,0,1,.97413.65481,4.41126,4.41126,0,0,1,1.30812,2.19242A4.45161,4.45161,0,0,1,2.43337,91.433,4.37178,4.37178,0,0,1,.8787,94.77531,4.32174,4.32174,0,0,1,0,95.34576v45.38286a7.0069,7.0069,0,0,1,6.139,3.6925,6.91624,6.91624,0,0,1,.88664,3.33839,7.04041,7.04041,0,0,1-4.23845,6.442A6.74841,6.74841,0,0,1,0,154.79744v3.25568a9.99773,9.99773,0,0,0,2.34552-.29073l9.34969,31.70118A13.81746,13.81746,0,0,0,6.22023,195h3.88136A10.47048,10.47048,0,0,1,23.896,192.61065,10.42537,10.42537,0,0,1,26.55968,195h3.87269a13.59793,13.59793,0,0,0-3.48167-4.20294L59.49511,138.598a16.60612,16.60612,0,0,0,7.45345,1.79639c.43792,0,.86861-.03255,1.29675-.07452l7.40631,42.12137A13.11767,13.11767,0,0,0,66.34026,195h3.26036a9.88156,9.88156,0,0,1,8.1985-9.74255A9.9884,9.9884,0,0,1,89.42494,195H92.6853a12.79071,12.79071,0,0,0-.80424-4.42147l52.15868-36.44539a10.046,10.046,0,0,0,2.412,2.21493L131.20845,195h3.50043l14.71677-37.31678a9.68218,9.68218,0,0,0,2.57435.3699v-3.25727A7.52666,7.52666,0,0,1,149.02191,154.098ZM144.5688,85.99355a7.641,7.641,0,0,0-2.2823,5.4394,6.71957,6.71957,0,0,0,.24772,1.77039l-61.8138,20.72939a16.95011,16.95011,0,0,0-3.9304-3.98819L111.4798,52.45119a10.5541,10.5541,0,0,0,4.07186.83922,10.73506,10.73506,0,0,0,5.25025-1.367ZM110.74061,36.85719a7.31961,7.31961,0,0,1,7.9879-1.07036,7.5073,7.5073,0,1,1-7.9879,1.07036Zm-2.04749,13.8996L73.97718,108.29333a16.60025,16.60025,0,0,0-11.7926-.86271L51.59171,82.02084A11.97,11.97,0,0,0,57.05618,68.3659l48.73833-21.41431A10.60029,10.60029,0,0,0,108.69312,50.75679ZM48.878,79.74791a8.7619,8.7619,0,0,1-6.73988-16.17583L41.50986,62.068l.6322,1.50407a8.60941,8.60941,0,0,1,3.36374-.67641,8.76374,8.76374,0,0,1,3.37168,16.851ZM71.95091,10.71153a13.01748,13.01748,0,0,0,7.5619,2.45078,12.82918,12.82918,0,0,0,7.17009-2.19309l20.7976,24.56029a10.64318,10.64318,0,0,0-2.67211,7.00966,9.36722,9.36722,0,0,0,.08663,1.24693L55.73969,65.38352a11.90977,11.90977,0,0,0-13.30736-5.33643L37.86692,49.09665ZM35.46467,51.802l3.9587,9.495a12.00371,12.00371,0,0,0,9.15839,21.97136l10.5842,25.389a16.82481,16.82481,0,0,0-2.05537,1.28449L5.579,90.266c-.03931-.23133-.07734-.46161-.13976-.70713a7.62751,7.62751,0,0,0-1.20981-2.58ZM24.18493,189.06761a13.71564,13.71564,0,0,0-9.45227-.82466L5.3746,156.51332a10.286,10.286,0,0,0,4.91144-8.75381,10.1378,10.1378,0,0,0-1.28825-4.90211,10.28861,10.28861,0,0,0-7.36761-5.24533V98.19373a7.88433,7.88433,0,0,0,1.38367-.9554,7.77444,7.77444,0,0,0,2.3322-3.57008l49.05324,18.72957a16.56039,16.56039,0,0,0-2.16212,19.18311l.004.004a17.02923,17.02923,0,0,0,4.49193,5.27757Zm35.60675-54.02495A13.63232,13.63232,0,0,1,55.1,130.02119a13.38448,13.38448,0,0,1-1.70971-6.45794,13.55828,13.55828,0,1,1,27.11656,0,13.53232,13.53232,0,0,1-11.21242,13.32964A13.644,13.644,0,0,1,59.79168,135.04266Zm30.60507,52.59895a13.02487,13.02487,0,0,0-10.88394-5.822c-.22314,0-.44036.02313-.65977.03787L71.4466,139.73535a16.68151,16.68151,0,0,0,10.35494-8.304l60.091,14.51881a9.42469,9.42469,0,0,0-.17858,1.80936,9.99421,9.99421,0,0,0,.67249,3.55479ZM142.966,142.85777l-59.9161-14.47653a16.64676,16.64676,0,0,0-.70195-11.55992L143.99162,96.149a7.49939,7.49939,0,0,0,4.5055,2.84411,7.71164,7.71164,0,0,0,1.495.15117c.12643,0,.25188-.011.37775-.01749v38.47205A10.26758,10.26758,0,0,0,142.966,142.85777Z"/></svg>